<?xml version="1.0" encoding="UTF-8"?>
<!-- Generator: https://ezgif.com/png-to-svg -->
<svg version="1.1" xmlns="http://www.w3.org/2000/svg" width="640" height="640">
<path d="M0 0 C5.51 3.82 8.89 7.54 11 14 C11.38 17.56 11.38 17.56 11.4 21.4 C11.41 22.11 11.41 22.83 11.42 23.56 C11.44 25.93 11.43 28.3 11.43 30.68 C11.44 32.39 11.45 34.1 11.46 35.81 C11.49 40.45 11.5 45.1 11.51 49.75 C11.52 54.67 11.54 59.59 11.57 64.51 C11.61 73.88 11.64 83.25 11.66 92.62 C11.69 103.08 11.73 113.54 11.78 124 C11.86 141.86 11.91 159.73 11.95 177.6 C11.97 188.13 12.01 198.65 12.09 209.18 C12.13 214.12 12.16 219.07 12.19 224.01 C12.2 226.16 12.22 228.32 12.24 230.47 C12.28 233.33 12.29 236.19 12.3 239.04 C12.33 240.23 12.33 240.23 12.35 241.45 C12.34 248.1 10.73 253.95 7.44 259.75 C2.08 264.69 -3.69 267.3 -11 267.62 C-23.97 266.9 -30.98 258.44 -39.44 249.6 C-43.51 245.42 -47.84 241.74 -52.69 238.5 C-57.22 235.37 -60.25 231.25 -62 226 C-62.1 223.49 -62.14 221.01 -62.14 218.5 C-62.14 217.73 -62.15 216.96 -62.15 216.16 C-62.16 213.57 -62.16 210.98 -62.16 208.39 C-62.17 206.53 -62.17 204.68 -62.18 202.83 C-62.19 197.78 -62.2 192.74 -62.2 187.7 C-62.2 184.55 -62.21 181.4 -62.21 178.25 C-62.23 168.4 -62.24 158.55 -62.24 148.7 C-62.24 137.32 -62.26 125.94 -62.29 114.57 C-62.31 105.78 -62.32 96.99 -62.32 88.2 C-62.32 82.94 -62.33 77.69 -62.35 72.44 C-62.36 67.5 -62.37 62.56 -62.36 57.62 C-62.36 55.81 -62.36 53.99 -62.37 52.18 C-62.38 49.7 -62.38 47.23 -62.37 44.76 C-62.38 44.04 -62.38 43.32 -62.39 42.58 C-62.33 35.82 -59.3 31.95 -55 27 C-53.41 25.6 -51.79 24.25 -50.12 22.94 C-45.6 19.31 -41.15 15.6 -36.75 11.81 C-36.18 11.33 -35.62 10.84 -35.04 10.34 C-34.21 9.62 -34.21 9.62 -33.36 8.89 C-32.54 8.19 -32.54 8.19 -31.7 7.47 C-30.51 6.44 -29.33 5.41 -28.16 4.37 C-27.56 3.84 -26.95 3.3 -26.33 2.75 C-25.51 2.03 -25.51 2.03 -24.68 1.29 C-17.25 -4.41 -8.05 -4.33 0 0 Z " fill="#06FBB7" transform="translate(491,188)"/>
<path d="M0 0 C5.86 4.11 9.24 7.91 11 15 C11.44 19.6 11.42 24.19 11.41 28.81 C11.42 30.21 11.43 31.62 11.44 33.02 C11.46 36.86 11.46 40.7 11.46 44.54 C11.47 48.69 11.49 52.84 11.5 56.99 C11.54 65.11 11.56 73.23 11.57 81.35 C11.58 90.81 11.61 100.27 11.64 109.73 C11.69 126.61 11.73 143.49 11.76 160.37 C11.79 176.75 11.83 193.12 11.89 209.5 C11.95 227.33 12 245.17 12.04 263.01 C12.05 264.91 12.05 266.81 12.05 268.72 C12.06 269.65 12.06 270.59 12.06 271.55 C12.08 278.14 12.1 284.74 12.12 291.33 C12.14 299.36 12.16 307.4 12.17 315.43 C12.18 319.53 12.18 323.63 12.2 327.73 C12.22 331.48 12.22 335.24 12.22 338.99 C12.22 340.99 12.23 342.98 12.25 344.98 C12.21 362.8 12.21 362.8 6.67 368.65 C0.77 373.41 -6.36 376.43 -14 376 C-20.92 374.86 -26.56 371.43 -31 366 C-34.81 359.32 -34.42 352.79 -34.39 345.25 C-34.39 343.84 -34.4 342.43 -34.4 341.02 C-34.42 337.16 -34.41 333.3 -34.41 329.44 C-34.4 325.27 -34.41 321.1 -34.42 316.93 C-34.44 308.76 -34.44 300.6 -34.44 292.43 C-34.43 285.79 -34.44 279.16 -34.44 272.52 C-34.44 271.57 -34.44 270.63 -34.44 269.65 C-34.44 267.73 -34.45 265.81 -34.45 263.89 C-34.46 245.89 -34.46 227.88 -34.44 209.88 C-34.43 193.42 -34.45 176.95 -34.47 160.49 C-34.5 143.58 -34.51 126.67 -34.5 109.76 C-34.49 100.27 -34.5 90.78 -34.51 81.29 C-34.53 73.2 -34.53 65.12 -34.51 57.04 C-34.5 52.92 -34.5 48.8 -34.52 44.68 C-34.53 40.9 -34.53 37.12 -34.51 33.35 C-34.5 31.34 -34.52 29.34 -34.53 27.34 C-34.46 18.93 -33.8 10.37 -28.06 3.77 C-19.98 -3.88 -9.8 -5.52 0 0 Z " fill="#07FEB9" transform="translate(331,134)"/>
<path d="M0 0 C6.19 4.27 9.88 10.53 13.75 16.81 C14.52 18.02 15.29 19.23 16.05 20.44 C21.16 28.55 22.95 33.84 23.27 43.34 C23.31 44.5 23.36 45.66 23.4 46.86 C24 65.76 24.12 84.67 24.31 103.59 C24.36 109.26 24.43 114.94 24.49 120.62 C24.54 125.06 24.59 129.5 24.63 133.94 C24.65 136.03 24.68 138.12 24.7 140.22 C24.82 150.13 24.85 160.02 24.33 169.93 C24.27 171.02 24.27 171.02 24.21 172.14 C23.31 186.64 14.74 198.92 5.31 209.56 C-1.61 215.64 -7.28 216.76 -16.35 216.32 C-21.89 215.6 -25.47 213.93 -29.25 209.81 C-33.14 204 -34.4 198.48 -34.39 191.55 C-34.39 190.81 -34.4 190.06 -34.4 189.29 C-34.41 186.79 -34.41 184.29 -34.41 181.78 C-34.42 179.99 -34.42 178.2 -34.43 176.41 C-34.44 171.53 -34.45 166.66 -34.45 161.79 C-34.45 158.74 -34.46 155.7 -34.46 152.65 C-34.48 143.13 -34.49 133.6 -34.49 124.07 C-34.49 113.08 -34.51 102.08 -34.54 91.08 C-34.56 82.58 -34.57 74.08 -34.57 65.58 C-34.57 60.51 -34.58 55.43 -34.6 50.35 C-34.61 45.57 -34.62 40.8 -34.61 36.02 C-34.61 34.27 -34.61 32.52 -34.62 30.77 C-34.63 28.37 -34.63 25.98 -34.62 23.58 C-34.63 22.55 -34.63 22.55 -34.64 21.49 C-34.56 13.35 -30.78 6.64 -25.25 0.81 C-17.92 -3.97 -7.73 -4 0 0 Z " fill="#06FDB9" transform="translate(251.25,213.1875)"/>
<path d="M0 0 C5.84 4.94 8.86 10.46 10 18 C9.88 20.53 9.88 20.53 9.57 23.15 C8.99 28.72 8.87 34.19 8.9 39.79 C8.9 40.81 8.91 41.82 8.91 42.87 C8.91 45.05 8.92 47.24 8.92 49.43 C8.94 52.9 8.94 56.37 8.95 59.84 C8.96 68.45 8.99 77.07 9.01 85.68 C9.03 92.97 9.05 100.27 9.06 107.56 C9.06 110.96 9.07 114.36 9.09 117.76 C9.16 147.57 9.16 147.57 3.17 153.95 C-3.02 159.38 -8.03 161.58 -16.35 161.37 C-25.26 160.12 -30.72 154.81 -36 148 C-36.77 147.09 -37.53 146.19 -38.32 145.25 C-47 134.97 -49.16 127.13 -49.13 113.97 C-49.13 113.11 -49.13 112.24 -49.13 111.35 C-49.14 108.52 -49.14 105.68 -49.13 102.85 C-49.13 100.86 -49.13 98.88 -49.14 96.89 C-49.14 92.74 -49.14 88.59 -49.13 84.44 C-49.12 79.14 -49.13 73.83 -49.13 68.53 C-49.14 64.43 -49.14 60.34 -49.13 56.24 C-49.13 54.28 -49.13 52.33 -49.14 50.37 C-49.14 47.64 -49.13 44.9 -49.13 42.16 C-49.13 41.36 -49.13 40.56 -49.14 39.74 C-49.08 24.41 -49.08 24.41 -44 18 C-43.42 17.22 -42.85 16.44 -42.25 15.63 C-38.7 10.88 -38.7 10.88 -37 9 C-36.34 9 -35.68 9 -35 9 C-34.83 8.32 -34.67 7.64 -34.5 6.94 C-31.83 1.71 -27.29 -1.88 -22.06 -4.44 C-13.46 -6.02 -7.35 -4.99 0 0 Z " fill="#09FCB8" transform="translate(414,242)"/>
<path d="M0 0 C5.45 0.03 10.44 2.14 15.53 3.93 C17.67 4.67 19.82 5.42 21.96 6.16 C23 6.52 24.04 6.88 25.1 7.25 C27.62 8.11 30.14 8.91 32.69 9.68 C47.15 14.05 47.15 14.05 51.1 21.18 C51.96 23.12 51.96 23.12 53.03 26.25 C54.02 26.25 55.01 26.25 56.03 26.25 C57.87 28.09 57.16 31.05 57.16 33.52 C57.16 34.82 57.16 36.12 57.16 37.46 C57.16 38.15 57.16 38.83 57.16 39.53 C57.15 41.58 57.16 43.62 57.16 45.66 C57.16 53.25 56.9 60.71 56.03 68.25 C55.37 67.26 54.71 66.27 54.03 65.25 C54.01 65.84 54 66.43 53.98 67.05 C53.91 69.78 53.81 72.51 53.71 75.25 C53.69 76.18 53.67 77.12 53.65 78.08 C53.38 84.89 52.76 91.26 47.96 96.5 C40.24 101.1 31.28 103.58 22.78 106.37 C21.2 106.89 21.2 106.89 19.6 107.42 C17.6 108.08 15.6 108.74 13.59 109.4 C11.58 110.06 9.58 110.76 7.59 111.46 C1.24 113.41 -4.36 112.87 -10.35 110.06 C-16.63 106.55 -19.73 102.05 -21.97 95.25 C-22.25 92.59 -22.39 90.17 -22.38 87.53 C-22.38 86.79 -22.39 86.05 -22.4 85.29 C-22.42 82.87 -22.41 80.45 -22.41 78.04 C-22.41 76.34 -22.42 74.65 -22.42 72.95 C-22.43 69.41 -22.43 65.86 -22.42 62.31 C-22.41 57.79 -22.43 53.27 -22.46 48.74 C-22.48 45.24 -22.47 41.74 -22.47 38.25 C-22.47 36.58 -22.47 34.91 -22.49 33.24 C-22.59 16.74 -22.59 16.74 -17.97 9.25 C-17.64 8.59 -17.31 7.93 -16.97 7.25 C-16.31 7.25 -15.65 7.25 -14.97 7.25 C-14.97 6.59 -14.97 5.93 -14.97 5.25 C-9.98 1.32 -6.17 0.51 0 0 Z " fill="#16FDBD" transform="translate(158.97265625,263.75390625)"/>
<path d="M0 0 C5.51 3.82 8.89 7.54 11 14 C11.38 17.56 11.38 17.56 11.4 21.4 C11.41 22.11 11.41 22.83 11.42 23.56 C11.44 25.93 11.43 28.3 11.43 30.68 C11.44 32.39 11.45 34.1 11.46 35.81 C11.49 40.45 11.5 45.1 11.51 49.75 C11.52 54.67 11.54 59.59 11.57 64.51 C11.61 73.88 11.64 83.25 11.66 92.62 C11.69 103.08 11.73 113.54 11.78 124 C11.86 141.86 11.91 159.73 11.95 177.6 C11.97 188.13 12.01 198.65 12.09 209.18 C12.13 214.12 12.16 219.07 12.19 224.01 C12.2 226.16 12.22 228.32 12.24 230.47 C12.28 233.33 12.29 236.19 12.3 239.04 C12.33 240.23 12.33 240.23 12.35 241.45 C12.34 248.1 10.73 253.95 7.44 259.75 C2.08 264.69 -3.69 267.3 -11 267.62 C-23.97 266.9 -30.98 258.44 -39.44 249.6 C-43.51 245.42 -47.84 241.74 -52.69 238.5 C-57.22 235.37 -60.25 231.25 -62 226 C-62.1 223.49 -62.14 221.01 -62.14 218.5 C-62.14 217.73 -62.15 216.96 -62.15 216.16 C-62.16 213.57 -62.16 210.98 -62.16 208.39 C-62.17 206.53 -62.17 204.68 -62.18 202.83 C-62.19 197.78 -62.2 192.74 -62.2 187.7 C-62.2 184.55 -62.21 181.4 -62.21 178.25 C-62.23 168.4 -62.24 158.55 -62.24 148.7 C-62.24 137.32 -62.26 125.94 -62.29 114.57 C-62.31 105.78 -62.32 96.99 -62.32 88.2 C-62.32 82.94 -62.33 77.69 -62.35 72.44 C-62.36 67.5 -62.37 62.56 -62.36 57.62 C-62.36 55.81 -62.36 53.99 -62.37 52.18 C-62.38 49.7 -62.38 47.23 -62.37 44.76 C-62.38 44.04 -62.38 43.32 -62.39 42.58 C-62.33 35.82 -59.3 31.95 -55 27 C-53.41 25.6 -51.79 24.25 -50.12 22.94 C-46.77 20.26 -43.48 17.57 -40.27 14.71 C-39.65 14.16 -39.02 13.61 -38.37 13.04 C-37.14 11.94 -35.91 10.84 -34.68 9.72 C-33.19 8.4 -31.6 7.19 -30 6 C-29.01 6.33 -28.02 6.66 -27 7 C-27.46 7.35 -27.92 7.7 -28.39 8.07 C-29 8.56 -29.62 9.05 -30.25 9.56 C-30.85 10.04 -31.46 10.51 -32.08 11 C-37.58 16.72 -38.59 21.71 -38.52 29.35 C-38.53 30.73 -38.53 30.73 -38.54 32.14 C-38.56 35.21 -38.55 38.28 -38.55 41.36 C-38.55 43.57 -38.57 45.77 -38.58 47.98 C-38.61 53.97 -38.61 59.95 -38.61 65.94 C-38.61 72.2 -38.64 78.46 -38.66 84.72 C-38.7 95.22 -38.72 105.73 -38.73 116.23 C-38.74 127.05 -38.76 137.86 -38.79 148.68 C-38.79 149.35 -38.8 150.02 -38.8 150.7 C-38.81 154.05 -38.82 157.4 -38.83 160.75 C-38.91 188.5 -38.96 216.25 -39 244 C-38.34 244 -37.68 244 -37 244 C-36.67 244.99 -36.34 245.98 -36 247 C-35.24 247.6 -34.47 248.2 -33.69 248.81 C-31 251 -31 251 -29.12 253.88 C-26.37 257.92 -22.87 262.02 -18.11 263.64 C-11.99 264.68 -6.06 265.09 -0.56 261.88 C3.76 258.75 6.31 255.06 8 250 C8.09 248.66 8.13 247.31 8.13 245.96 C8.14 244.73 8.14 244.73 8.14 243.47 C8.14 242.56 8.14 241.66 8.14 240.73 C8.14 239.77 8.15 238.8 8.15 237.81 C8.16 234.58 8.16 231.34 8.16 228.11 C8.17 225.79 8.17 223.48 8.18 221.16 C8.19 214.87 8.2 208.57 8.2 202.27 C8.2 198.34 8.21 194.41 8.21 190.47 C8.22 179.58 8.23 168.69 8.24 157.8 C8.24 157.11 8.24 156.41 8.24 155.69 C8.24 154.99 8.24 154.3 8.24 153.58 C8.24 152.16 8.24 150.74 8.24 149.33 C8.24 148.63 8.24 147.92 8.24 147.2 C8.24 135.82 8.26 124.45 8.29 113.07 C8.31 101.39 8.32 89.71 8.32 78.03 C8.32 71.47 8.33 64.91 8.35 58.35 C8.36 52.19 8.37 46.02 8.36 39.85 C8.36 37.58 8.36 35.32 8.37 33.05 C8.38 29.96 8.38 26.87 8.37 23.78 C8.38 22.89 8.38 21.99 8.39 21.07 C8.34 14.62 7.5 9.5 2.75 4.75 C-3.35 0.87 -8.79 -1.16 -16 0 C-18.84 1.08 -21.4 2.45 -24 4 C-24.66 4.33 -25.32 4.66 -26 5 C-25.79 3.14 -25.79 3.14 -25 1 C-16.95 -3.99 -8.3 -4.46 0 0 Z " fill="#056248" transform="translate(491,188)"/>
<path d="M0 0 C3.44 0.25 3.44 0.25 7 1 C9.85 5.28 10.12 9.05 10.14 14.11 C10.15 15.12 10.15 16.13 10.16 17.18 C10.16 18.28 10.16 19.39 10.16 20.53 C10.17 22.29 10.17 22.29 10.18 24.1 C10.19 27.37 10.2 30.64 10.2 33.91 C10.21 36.72 10.22 39.52 10.23 42.33 C10.26 51.57 10.29 60.81 10.3 70.05 C10.31 72.45 10.31 74.86 10.32 77.26 C10.35 92.21 10.38 107.15 10.39 122.09 C10.4 125.55 10.4 129.01 10.41 132.47 C10.41 133.33 10.41 134.19 10.41 135.07 C10.43 149.01 10.47 162.94 10.52 176.87 C10.57 191.18 10.6 205.49 10.61 219.79 C10.61 227.83 10.62 235.86 10.66 243.89 C10.7 250.73 10.71 257.57 10.7 264.41 C10.69 267.89 10.7 271.38 10.73 274.87 C10.76 278.65 10.75 282.44 10.73 286.22 C10.75 287.32 10.76 288.42 10.78 289.56 C10.7 295.9 9.87 299.36 5.29 303.88 C4.86 304.25 4.44 304.62 4 305 C0.31 304.5 -1.69 303.98 -4 301 C-5.86 297.88 -6.25 295.59 -6.26 291.98 C-6.27 290.96 -6.27 289.94 -6.28 288.89 C-6.28 287.77 -6.28 286.66 -6.27 285.51 C-6.28 284.32 -6.28 283.13 -6.29 281.9 C-6.3 278.61 -6.31 275.31 -6.31 272.01 C-6.31 268.45 -6.32 264.89 -6.33 261.33 C-6.35 253.56 -6.36 245.78 -6.37 238 C-6.37 233.14 -6.38 228.29 -6.38 223.43 C-6.4 209.99 -6.42 196.55 -6.42 183.11 C-6.42 182.25 -6.42 181.39 -6.42 180.5 C-6.42 178.76 -6.42 177.01 -6.42 175.27 C-6.43 174.4 -6.43 173.54 -6.43 172.64 C-6.43 171.78 -6.43 170.91 -6.43 170.02 C-6.43 155.97 -6.46 141.92 -6.49 127.86 C-6.53 113.44 -6.55 99.02 -6.55 84.6 C-6.55 76.5 -6.56 68.4 -6.59 60.3 C-6.61 53.4 -6.62 46.51 -6.61 39.61 C-6.6 36.1 -6.6 32.58 -6.62 29.06 C-6.65 25.25 -6.63 21.43 -6.61 17.62 C-6.63 16.51 -6.64 15.39 -6.65 14.24 C-6.56 5.92 -6.56 5.92 -3.52 2.84 C-2.69 2.23 -1.86 1.62 -1 1 C-0.67 0.67 -0.34 0.34 0 0 Z " fill="#5DFED2" transform="translate(318,167)"/>
<path d="M0 0 C1.34 0.04 1.34 0.04 2.7 0.08 C3.38 0.12 4.05 0.15 4.75 0.19 C5.08 1.18 5.41 2.17 5.75 3.19 C6.41 3.19 7.07 3.19 7.75 3.19 C10.02 6.81 10.01 9.86 10.02 14.09 C10.03 15.13 10.03 15.13 10.04 16.19 C10.06 18.52 10.06 20.84 10.06 23.17 C10.06 24.84 10.07 26.5 10.08 28.17 C10.1 32.7 10.11 37.23 10.12 41.76 C10.12 44.59 10.13 47.41 10.13 50.24 C10.16 60.11 10.17 69.98 10.18 79.85 C10.18 89.05 10.21 98.25 10.25 107.45 C10.29 115.35 10.3 123.25 10.3 131.14 C10.3 135.86 10.31 140.58 10.34 145.3 C10.37 149.73 10.37 154.17 10.35 158.61 C10.35 160.24 10.36 161.86 10.37 163.49 C10.39 165.71 10.38 167.94 10.36 170.16 C10.37 171.4 10.37 172.65 10.37 173.93 C9.58 178.08 7.97 179.55 4.75 182.19 C1.46 183.83 -1.71 183.8 -5.25 183.19 C-8.48 181.86 -10.38 180.14 -12.25 177.19 C-13.3 171.83 -13.17 166.51 -13.09 161.07 C-13.1 159.41 -13.1 157.76 -13.11 156.1 C-13.12 151.6 -13.1 147.11 -13.06 142.62 C-13.03 137.91 -13.03 133.21 -13.03 128.5 C-13.03 120.6 -12.99 112.7 -12.94 104.8 C-12.89 95.67 -12.86 86.54 -12.86 77.41 C-12.86 67.68 -12.83 57.96 -12.8 48.23 C-12.79 45.43 -12.78 42.63 -12.78 39.83 C-12.77 35.43 -12.75 31.03 -12.72 26.63 C-12.71 25.01 -12.7 23.39 -12.7 21.78 C-12.7 19.57 -12.68 17.37 -12.66 15.16 C-12.65 13.93 -12.65 12.7 -12.64 11.43 C-12.11 7.03 -10.53 4.43 -7.39 1.39 C-4.74 -0.1 -3.02 -0.12 0 0 Z " fill="#3EFEC9" transform="translate(241.25,227.8125)"/>
<path d="M0 0 C3.38 0 3.38 0 7 1 C10.99 5.6 11.57 9.55 11.5 15.43 C11.51 16.27 11.51 17.1 11.52 17.96 C11.53 20.75 11.52 23.54 11.5 26.33 C11.51 28.33 11.51 30.33 11.52 32.34 C11.53 37.77 11.52 43.2 11.5 48.64 C11.49 54.32 11.5 60.01 11.5 65.69 C11.5 75.24 11.49 84.79 11.47 94.34 C11.44 105.38 11.44 116.42 11.45 127.46 C11.46 138.08 11.45 148.7 11.44 159.31 C11.43 163.83 11.43 168.35 11.44 172.87 C11.44 178.2 11.43 183.52 11.41 188.84 C11.41 190.79 11.41 192.75 11.41 194.7 C11.42 197.37 11.4 200.03 11.39 202.69 C11.39 203.47 11.4 204.24 11.41 205.04 C11.35 209.54 10.81 212.45 8 216 C4.73 218.18 3.79 218.63 0 218 C-3.05 215.44 -4.74 213.79 -6 210 C-6.1 207.33 -6.15 204.68 -6.15 202.01 C-6.15 201.19 -6.15 200.36 -6.16 199.52 C-6.17 196.75 -6.17 193.98 -6.18 191.21 C-6.18 189.23 -6.19 187.25 -6.2 185.27 C-6.21 179.88 -6.22 174.49 -6.23 169.1 C-6.24 165.74 -6.24 162.37 -6.25 159.01 C-6.27 148.48 -6.28 137.96 -6.29 127.43 C-6.3 115.28 -6.33 103.12 -6.37 90.96 C-6.4 81.57 -6.41 72.18 -6.42 62.79 C-6.42 57.18 -6.43 51.56 -6.45 45.95 C-6.48 40.67 -6.48 35.4 -6.47 30.12 C-6.47 28.18 -6.48 26.24 -6.49 24.3 C-6.51 21.66 -6.5 19.02 -6.49 16.37 C-6.5 15.6 -6.51 14.84 -6.52 14.05 C-6.45 7.84 -4.31 4.31 0 0 Z " fill="#81FEDC" transform="translate(478,212)"/>
<path d="M0 0 C5.86 4.11 9.24 7.91 11 15 C11.44 19.6 11.42 24.19 11.41 28.81 C11.42 30.21 11.43 31.62 11.44 33.02 C11.46 36.86 11.46 40.7 11.46 44.54 C11.47 48.69 11.49 52.84 11.5 56.99 C11.54 65.11 11.56 73.23 11.57 81.35 C11.58 90.81 11.61 100.27 11.64 109.73 C11.69 126.61 11.73 143.49 11.76 160.37 C11.79 176.75 11.83 193.12 11.89 209.5 C11.95 227.33 12 245.17 12.04 263.01 C12.05 264.91 12.05 266.81 12.05 268.72 C12.06 269.65 12.06 270.59 12.06 271.55 C12.08 278.14 12.1 284.74 12.12 291.33 C12.14 299.36 12.16 307.4 12.17 315.43 C12.18 319.53 12.18 323.63 12.2 327.73 C12.22 331.48 12.22 335.24 12.22 338.99 C12.22 340.99 12.23 342.98 12.25 344.98 C12.21 362.8 12.21 362.8 6.67 368.65 C0.77 373.41 -6.36 376.43 -14 376 C-20.92 374.86 -26.56 371.43 -31 366 C-34.81 359.32 -34.42 352.79 -34.39 345.25 C-34.39 343.84 -34.4 342.43 -34.4 341.02 C-34.42 337.16 -34.41 333.3 -34.41 329.44 C-34.4 325.27 -34.41 321.1 -34.42 316.93 C-34.44 308.76 -34.44 300.6 -34.44 292.43 C-34.43 285.79 -34.44 279.16 -34.44 272.52 C-34.44 271.57 -34.44 270.63 -34.44 269.65 C-34.44 267.73 -34.45 265.81 -34.45 263.89 C-34.46 245.89 -34.46 227.88 -34.44 209.88 C-34.43 193.42 -34.45 176.95 -34.47 160.49 C-34.5 143.58 -34.51 126.67 -34.5 109.76 C-34.49 100.27 -34.5 90.78 -34.51 81.29 C-34.53 73.2 -34.53 65.12 -34.51 57.04 C-34.5 52.92 -34.5 48.8 -34.52 44.68 C-34.53 40.9 -34.53 37.12 -34.51 33.35 C-34.5 31.34 -34.52 29.34 -34.53 27.34 C-34.46 18.93 -33.8 10.37 -28.06 3.77 C-19.98 -3.88 -9.8 -5.52 0 0 Z M-23 4 C-25.28 6.84 -27.13 9.88 -29 13 C-29.33 13.33 -29.66 13.66 -30 14 C-30.1 15.82 -30.13 17.65 -30.13 19.47 C-30.14 20.67 -30.14 21.86 -30.15 23.1 C-30.15 24.44 -30.15 25.78 -30.15 27.13 C-30.15 28.54 -30.15 29.95 -30.16 31.37 C-30.17 35.27 -30.17 39.18 -30.17 43.08 C-30.18 47.29 -30.19 51.49 -30.2 55.69 C-30.22 65.86 -30.23 76.02 -30.24 86.18 C-30.24 90.97 -30.25 95.75 -30.25 100.53 C-30.27 116.43 -30.28 132.33 -30.29 148.22 C-30.29 152.35 -30.29 156.48 -30.3 160.61 C-30.3 161.63 -30.3 162.66 -30.3 163.72 C-30.3 180.34 -30.33 196.96 -30.36 213.58 C-30.4 230.63 -30.41 247.69 -30.42 264.74 C-30.42 274.32 -30.43 283.9 -30.45 293.48 C-30.48 301.64 -30.48 309.79 -30.47 317.95 C-30.47 322.12 -30.47 326.28 -30.49 330.44 C-30.51 334.26 -30.51 338.07 -30.49 341.88 C-30.49 343.91 -30.5 345.94 -30.52 347.97 C-30.47 355.66 -30.04 361.79 -24.46 367.61 C-23.98 368.07 -23.5 368.53 -23 369 C-22.5 369.54 -22.01 370.07 -21.5 370.62 C-17.86 373.96 -12.74 373.38 -8.1 373.37 C-3.54 372.83 -0.49 370.88 3 368 C2.67 366.35 2.34 364.7 2 363 C2.66 363 3.32 363 4 363 C4 361.68 4 360.36 4 359 C4.99 358.67 5.98 358.34 7 358 C8.04 354.87 8.13 352.71 8.13 349.42 C8.13 347.67 8.13 347.67 8.14 345.89 C8.14 344.6 8.14 343.31 8.13 341.98 C8.14 340.6 8.14 339.23 8.14 337.85 C8.15 334.05 8.15 330.26 8.15 326.46 C8.15 322.37 8.15 318.28 8.16 314.19 C8.16 306.17 8.17 298.16 8.17 290.14 C8.17 283.62 8.17 277.1 8.17 270.58 C8.18 252.11 8.19 233.64 8.19 215.16 C8.19 213.67 8.19 213.67 8.19 212.14 C8.19 210.64 8.19 210.64 8.19 209.12 C8.18 192.95 8.19 176.79 8.21 160.63 C8.22 144.04 8.23 127.44 8.23 110.85 C8.23 101.53 8.23 92.22 8.24 82.9 C8.25 74.97 8.25 67.03 8.25 59.1 C8.24 55.05 8.24 51 8.25 46.95 C8.26 43.24 8.26 39.54 8.25 35.83 C8.25 33.86 8.25 31.89 8.26 29.92 C8.24 23.29 7.73 17.41 6 11 C5.34 11 4.68 11 4 11 C3.5 10.01 3.5 10.01 3 9 C2.34 9.33 1.68 9.66 1 10 C1 9.01 1 8.02 1 7 C-4.49 5.13 -9.22 4.76 -15 5 C-15 4.01 -15 3.02 -15 2 C-18.22 2 -20.05 2.58 -23 4 Z " fill="#199E7E" transform="translate(331,134)"/>
<path d="M0 0 C3.55 0.1 4.57 0.36 7.62 2.44 C12.29 9.22 11.98 16.91 11.96 24.85 C11.97 26.53 11.97 26.53 11.98 28.24 C11.99 31.92 11.99 35.6 11.99 39.28 C11.99 41.85 12 44.41 12 46.98 C12.01 52.36 12.01 57.73 12 63.11 C12 69.3 12.01 75.5 12.03 81.69 C12.05 87.68 12.05 93.66 12.05 99.64 C12.05 102.18 12.06 104.71 12.07 107.25 C12.08 110.8 12.07 114.35 12.06 117.89 C12.07 119.45 12.07 119.45 12.08 121.05 C12.04 127.02 11.79 133.16 8.69 138.44 C4.55 141.01 0.44 141.16 -4.31 140.44 C-7.66 137.72 -7.8 134.58 -8.31 130.44 C-8.46 126.51 -8.46 122.58 -8.46 118.65 C-8.46 117.47 -8.46 116.29 -8.47 115.07 C-8.48 111.85 -8.48 108.62 -8.48 105.39 C-8.48 103.37 -8.48 101.35 -8.49 99.34 C-8.49 92.29 -8.5 85.24 -8.5 78.19 C-8.5 71.63 -8.51 65.07 -8.52 58.51 C-8.54 52.87 -8.54 47.22 -8.54 41.58 C-8.54 38.21 -8.54 34.85 -8.55 31.48 C-8.56 27.73 -8.56 23.98 -8.56 20.22 C-8.56 19.11 -8.57 18 -8.57 16.86 C-8.5 0.24 -8.5 0.24 0 0 Z " fill="#58FED0" transform="translate(398.3125,249.5625)"/>
<path d="M0 0 C5.51 3.82 8.89 7.54 11 14 C11.38 17.56 11.38 17.56 11.4 21.4 C11.41 22.11 11.41 22.83 11.42 23.56 C11.44 25.93 11.43 28.3 11.43 30.68 C11.44 32.39 11.45 34.1 11.46 35.81 C11.49 40.45 11.5 45.1 11.51 49.75 C11.52 54.67 11.54 59.59 11.57 64.51 C11.61 73.88 11.64 83.25 11.66 92.62 C11.69 103.08 11.73 113.54 11.78 124 C11.86 141.86 11.91 159.73 11.95 177.6 C11.97 188.13 12.01 198.65 12.09 209.18 C12.13 214.12 12.16 219.07 12.19 224.01 C12.2 226.16 12.22 228.32 12.24 230.47 C12.28 233.33 12.29 236.19 12.3 239.04 C12.33 240.23 12.33 240.23 12.35 241.45 C12.34 248.1 10.73 253.95 7.44 259.75 C2.08 264.69 -3.69 267.3 -11 267.62 C-21.54 267.09 -27.88 261.68 -35.07 254.4 C-36.93 252.08 -37.49 250.85 -38 248 C-38.5 247.57 -38.99 247.13 -39.5 246.69 C-41.8 244.1 -41.68 241.35 -42 238 C-42.99 238 -43.98 238 -45 238 C-46.76 234.49 -46.39 230.4 -46.55 226.53 C-46.59 225.49 -46.63 224.44 -46.67 223.36 C-47.31 205.41 -47.23 187.43 -47.27 169.47 C-47.28 167.44 -47.28 165.41 -47.29 163.38 C-47.31 154.95 -47.33 146.51 -47.34 138.08 C-47.36 126.07 -47.39 114.06 -47.45 102.04 C-47.49 93.55 -47.51 85.05 -47.51 76.55 C-47.51 71.49 -47.53 66.43 -47.56 61.37 C-47.59 56.63 -47.6 51.89 -47.58 47.15 C-47.58 45.42 -47.59 43.68 -47.61 41.95 C-47.76 26.14 -47.76 26.14 -43.35 20.33 C-41.43 18.44 -39.44 17.12 -37 16 C-37.24 16.87 -37.24 16.87 -37.49 17.75 C-38.33 21.45 -38.15 25.21 -38.16 28.98 C-38.16 29.9 -38.17 30.82 -38.17 31.77 C-38.19 34.85 -38.2 37.93 -38.21 41.02 C-38.21 43.22 -38.22 45.43 -38.24 47.64 C-38.26 53.64 -38.28 59.64 -38.3 65.64 C-38.33 71.91 -38.35 78.17 -38.38 84.44 C-38.42 94.96 -38.46 105.48 -38.5 116 C-38.54 126.84 -38.58 137.68 -38.63 148.52 C-38.63 149.18 -38.63 149.85 -38.64 150.54 C-38.65 153.89 -38.66 157.24 -38.68 160.6 C-38.79 188.4 -38.9 216.2 -39 244 C-38.34 244 -37.68 244 -37 244 C-36.67 244.99 -36.34 245.98 -36 247 C-35.24 247.6 -34.47 248.2 -33.69 248.81 C-31 251 -31 251 -29.12 253.88 C-26.37 257.92 -22.87 262.02 -18.11 263.64 C-11.99 264.68 -6.06 265.09 -0.56 261.88 C3.76 258.75 6.31 255.06 8 250 C8.09 248.66 8.13 247.31 8.13 245.96 C8.14 244.73 8.14 244.73 8.14 243.47 C8.14 242.56 8.14 241.66 8.14 240.73 C8.14 239.77 8.15 238.8 8.15 237.81 C8.16 234.58 8.16 231.34 8.16 228.11 C8.17 225.79 8.17 223.48 8.18 221.16 C8.19 214.87 8.2 208.57 8.2 202.27 C8.2 198.34 8.21 194.41 8.21 190.47 C8.22 179.58 8.23 168.69 8.24 157.8 C8.24 157.11 8.24 156.41 8.24 155.69 C8.24 154.99 8.24 154.3 8.24 153.58 C8.24 152.16 8.24 150.74 8.24 149.33 C8.24 148.27 8.24 148.27 8.24 147.2 C8.24 135.82 8.26 124.45 8.29 113.07 C8.31 101.39 8.32 89.71 8.32 78.03 C8.32 71.47 8.33 64.91 8.35 58.35 C8.36 52.19 8.37 46.02 8.36 39.85 C8.36 37.58 8.36 35.32 8.37 33.05 C8.38 29.96 8.38 26.87 8.37 23.78 C8.38 22.89 8.38 21.99 8.39 21.07 C8.34 14.62 7.5 9.5 2.75 4.75 C-3.35 0.87 -8.79 -1.16 -16 0 C-18.84 1.08 -21.4 2.45 -24 4 C-24.99 4.5 -24.99 4.5 -26 5 C-25.79 3.14 -25.79 3.14 -25 1 C-16.95 -3.99 -8.3 -4.46 0 0 Z " fill="#029D6F" transform="translate(491,188)"/>
<path d="M0 0 C5.76 0.54 10.66 1.71 16.06 3.75 C17.55 4.3 19.04 4.85 20.53 5.39 C21.27 5.66 22.01 5.94 22.78 6.22 C24.9 6.97 27.04 7.65 29.19 8.3 C44.13 12.83 44.13 12.83 48.07 19.94 C48.94 21.88 48.94 21.88 50 25 C50.99 25 51.98 25 53 25 C54.84 26.84 54.13 29.81 54.13 32.27 C54.13 33.57 54.14 34.87 54.14 36.21 C54.13 36.9 54.13 37.58 54.13 38.29 C54.13 40.33 54.13 42.37 54.14 44.42 C54.13 52 53.87 59.46 53 67 C52.34 66.01 51.68 65.02 51 64 C50.99 64.59 50.97 65.19 50.96 65.8 C50.88 68.53 50.78 71.27 50.69 74 C50.66 74.93 50.64 75.87 50.62 76.83 C50.36 83.64 49.74 90.01 44.94 95.25 C37.21 99.85 28.26 102.34 19.75 105.12 C18.18 105.65 18.18 105.65 16.57 106.18 C14.57 106.84 12.57 107.5 10.57 108.15 C8.56 108.82 6.56 109.51 4.56 110.21 C-1.79 112.16 -7.38 111.62 -13.38 108.81 C-17.14 106.72 -19.71 104.73 -22 101 C-22.41 100.38 -22.82 99.76 -23.25 99.12 C-24.33 96.07 -24.12 93.21 -24 90 C-22.24 92.63 -21.04 95.07 -19.75 97.94 C-17.54 102.4 -15.58 104.76 -11 107 C-1.23 109.84 7.98 107.02 17 103 C20.6 100.59 23.48 98.13 25 94 C25.19 91.49 25.28 89.09 25.27 86.57 C25.28 85.83 25.28 85.09 25.29 84.32 C25.3 81.88 25.3 79.43 25.3 76.98 C25.3 75.27 25.31 73.56 25.31 71.86 C25.32 68.28 25.32 64.71 25.32 61.13 C25.31 56.55 25.33 51.98 25.35 47.4 C25.36 43.88 25.37 40.36 25.36 36.83 C25.36 35.15 25.37 33.46 25.38 31.77 C25.39 29.41 25.38 27.05 25.37 24.69 C25.38 23.99 25.39 23.3 25.4 22.59 C25.35 18.02 24.43 14.87 22 11 C19.54 9.77 19.54 9.77 17 9 C16.58 8.53 16.16 8.06 15.72 7.58 C13.36 5.41 10.99 4.85 7.94 3.94 C2.21 2.21 2.21 2.21 0 0 Z " fill="#044333" transform="translate(162,265)"/>
<path d="M0 0 C0 0.66 0 1.32 0 2 C0.99 2.33 1.98 2.66 3 3 C4.61 6.21 4.14 9.71 4.13 13.24 C4.14 14.1 4.14 14.97 4.14 15.86 C4.15 18.76 4.15 21.67 4.15 24.58 C4.15 26.65 4.15 28.73 4.16 30.81 C4.16 36.47 4.17 42.12 4.17 47.78 C4.17 52.5 4.17 57.22 4.18 61.94 C4.18 73.07 4.19 84.21 4.19 95.34 C4.18 106.83 4.2 118.32 4.21 129.81 C4.22 139.67 4.23 149.53 4.23 159.39 C4.23 165.28 4.23 171.17 4.24 177.06 C4.25 182.6 4.25 188.14 4.24 193.69 C4.24 195.72 4.25 197.76 4.25 199.79 C4.26 202.57 4.25 205.35 4.25 208.12 C4.25 208.93 4.26 209.73 4.26 210.56 C4.23 216 4.09 221.76 0.2 225.93 C-2.47 227.23 -4.29 227.3 -7.25 227.19 C-8.59 227.15 -8.59 227.15 -9.95 227.11 C-10.63 227.07 -11.3 227.04 -12 227 C-12 226.34 -12 225.68 -12 225 C-12.78 224.86 -13.57 224.71 -14.38 224.56 C-17 224 -17 224 -19 223 C-19.63 220.71 -19.63 220.71 -20.12 217.94 C-20.29 217.02 -20.46 216.1 -20.63 215.15 C-20.81 214.09 -20.81 214.09 -21 213 C-22.32 212.67 -23.64 212.34 -25 212 C-24.67 211.01 -24.34 210.02 -24 209 C-23.34 209 -22.68 209 -22 209 C-22 208.01 -22 207.02 -22 206 C-22.66 206 -23.32 206 -24 206 C-24 175.97 -24 145.94 -24 115 C-22.51 114.5 -22.51 114.5 -21 114 C-21.01 113 -21.03 112.01 -21.04 110.98 C-21.18 101.54 -21.32 92.09 -21.44 82.65 C-21.51 77.8 -21.58 72.94 -21.65 68.09 C-21.72 63.4 -21.78 58.7 -21.84 54.01 C-21.87 52.23 -21.89 50.45 -21.92 48.67 C-22.08 38.37 -21.96 28.26 -21 18 C-20.34 18 -19.68 18 -19 18 C-19.02 17.28 -19.05 16.55 -19.07 15.8 C-19.26 5.42 -19.26 5.42 -17 1 C-14.05 -0.85 -11.38 -1.4 -7.94 -1.75 C-7.08 -1.85 -6.22 -1.95 -5.34 -2.05 C-3 -2 -3 -2 0 0 Z M-11.53 7.22 C-15.74 12.2 -16.15 15.61 -16.13 21.88 C-16.14 22.7 -16.14 23.52 -16.14 24.37 C-16.15 27.14 -16.15 29.92 -16.15 32.69 C-16.15 34.67 -16.15 36.66 -16.16 38.64 C-16.16 44.03 -16.17 49.43 -16.17 54.83 C-16.17 59.33 -16.17 63.83 -16.18 68.33 C-16.18 78.95 -16.19 89.56 -16.19 100.18 C-16.18 111.14 -16.2 122.1 -16.21 133.06 C-16.22 142.46 -16.23 151.86 -16.23 161.27 C-16.23 166.89 -16.23 172.5 -16.24 178.12 C-16.25 183.41 -16.25 188.69 -16.24 193.98 C-16.24 195.92 -16.25 197.86 -16.25 199.8 C-16.26 202.45 -16.25 205.1 -16.25 207.74 C-16.25 208.51 -16.26 209.28 -16.26 210.08 C-16.23 215.16 -15.77 219.03 -12.31 222.88 C-8.9 224.54 -6.61 223.92 -3 223 C-0.42 221.1 -0.04 220.11 1 217 C1.1 214.3 1.15 211.63 1.15 208.93 C1.15 208.1 1.15 207.27 1.16 206.42 C1.17 203.62 1.17 200.82 1.18 198.03 C1.18 196.03 1.19 194.03 1.2 192.03 C1.21 186.58 1.22 181.14 1.23 175.7 C1.24 172.3 1.24 168.9 1.25 165.5 C1.27 154.87 1.28 144.24 1.29 133.62 C1.3 121.34 1.33 109.06 1.37 96.78 C1.4 87.3 1.41 77.81 1.42 68.33 C1.42 62.66 1.43 56.99 1.45 51.32 C1.48 45.99 1.48 40.66 1.47 35.33 C1.47 33.37 1.48 31.42 1.49 29.46 C1.51 26.79 1.5 24.12 1.49 21.45 C1.5 20.67 1.51 19.9 1.52 19.1 C1.46 13.94 0.36 10.92 -3 7 C-7.44 5.33 -7.44 5.33 -11.53 7.22 Z " fill="#1BFEBF" transform="translate(488,206)"/>
<path d="M0 0 C2.21 0.43 3.98 0.99 6 2 C6 97.7 6 193.4 6 292 C4.68 292 3.36 292 2 292 C-2.32 287.53 -1.41 281.34 -1.37 275.55 C-1.37 274.38 -1.37 273.2 -1.38 272 C-1.38 268.75 -1.38 265.5 -1.36 262.26 C-1.35 258.75 -1.36 255.25 -1.36 251.74 C-1.37 244.88 -1.36 238.02 -1.34 231.16 C-1.32 223.18 -1.32 215.19 -1.32 207.21 C-1.32 192.97 -1.31 178.73 -1.28 164.49 C-1.26 150.65 -1.24 136.82 -1.24 122.99 C-1.24 122.14 -1.24 121.29 -1.24 120.41 C-1.24 118.69 -1.24 116.98 -1.24 115.26 C-1.24 114.41 -1.24 113.56 -1.24 112.69 C-1.24 111.85 -1.24 111 -1.24 110.13 C-1.23 96.97 -1.22 83.8 -1.21 70.63 C-1.2 65.86 -1.2 61.08 -1.2 56.3 C-1.19 48.72 -1.19 41.15 -1.17 33.57 C-1.17 30.11 -1.16 26.64 -1.16 23.18 C-1.16 19.44 -1.15 15.69 -1.14 11.94 C-1.14 10.84 -1.14 9.73 -1.14 8.59 C-1.14 7.6 -1.14 6.6 -1.13 5.58 C-1.13 4.71 -1.13 3.84 -1.13 2.95 C-1 1 -1 1 0 0 Z " fill="#87FEDD" transform="translate(317,173)"/>
<path d="M0 0 C0 0.66 0 1.32 0 2 C-1.09 2.12 -2.19 2.25 -3.31 2.38 C-7.07 2.75 -7.07 2.75 -10 5 C-8.95 4.65 -7.9 4.3 -6.81 3.94 C-3.19 3.05 -1.44 2.72 2 4 C2.99 5.49 2.99 5.49 4 7 C-1.44 6.5 -1.44 6.5 -7 6 C-7 6.66 -7 7.32 -7 8 C-8.32 8 -9.64 8 -11 8 C-10.67 9.32 -10.34 10.64 -10 12 C-10.99 12.5 -10.99 12.5 -12 13 C-12.01 14.01 -12.02 15.03 -12.03 16.07 C-12.13 25.64 -12.23 35.2 -12.34 44.76 C-12.39 49.68 -12.45 54.6 -12.5 59.51 C-12.55 64.26 -12.6 69.01 -12.65 73.75 C-12.67 75.56 -12.69 77.37 -12.71 79.18 C-12.73 81.72 -12.76 84.25 -12.79 86.79 C-12.8 87.54 -12.81 88.28 -12.81 89.05 C-12.87 93.14 -13.3 96.98 -14 101 C-13.64 103.28 -13.64 103.28 -13 105 C-3.98 107.67 3.47 108.19 12.19 104.27 C14.34 102.77 15.03 101.4 16 99 C16.66 99 17.32 99 18 99 C18.07 88.99 18.12 78.97 18.16 68.96 C18.17 64.31 18.19 59.65 18.23 55 C18.26 50.51 18.28 46.02 18.28 41.52 C18.29 39.81 18.3 38.11 18.32 36.4 C18.4 27.77 18.45 20.08 15 12 C14.63 10.34 14.27 8.68 14 7 C12.68 6.67 11.36 6.34 10 6 C10.66 5.67 11.32 5.34 12 5 C17.71 7.05 22.36 9.31 25.62 14.66 C27.18 18.43 27.43 21.64 27.4 25.65 C27.41 26.4 27.42 27.14 27.42 27.9 C27.44 30.34 27.44 32.78 27.43 35.22 C27.44 36.92 27.44 38.63 27.45 40.33 C27.46 43.89 27.46 47.46 27.45 51.02 C27.43 55.58 27.45 60.14 27.48 64.7 C27.5 68.22 27.5 71.73 27.5 75.25 C27.5 76.93 27.5 78.61 27.51 80.29 C27.53 82.64 27.52 84.99 27.5 87.35 C27.51 88.03 27.52 88.72 27.53 89.43 C27.46 94.39 26.05 97.16 23 101 C19.35 104.5 15.5 106.23 10.75 107.75 C10.09 107.96 9.42 108.18 8.74 108.4 C1.93 110.49 -2.99 110.95 -9.75 108.81 C-16.22 105.2 -19.08 100.57 -22 94 C-22.99 94.5 -22.99 94.5 -24 95 C-24.09 85.12 -24.16 75.23 -24.21 65.35 C-24.23 60.76 -24.26 56.17 -24.3 51.58 C-24.35 47.14 -24.37 42.71 -24.38 38.27 C-24.39 36.59 -24.4 34.9 -24.42 33.21 C-24.63 16.44 -24.63 16.44 -20 9 C-19.67 8.34 -19.34 7.68 -19 7 C-18.34 7 -17.68 7 -17 7 C-17 6.34 -17 5.68 -17 5 C-11.49 0.67 -6.86 -0.2 0 0 Z " fill="#05E3A4" transform="translate(161,264)"/>
<path d="M0 0 C6.19 4.27 9.88 10.53 13.75 16.81 C14.52 18.02 15.29 19.23 16.05 20.44 C21.16 28.55 22.95 33.84 23.27 43.34 C23.31 44.5 23.36 45.66 23.4 46.86 C24 65.76 24.12 84.67 24.31 103.59 C24.36 109.26 24.43 114.94 24.49 120.62 C24.54 125.06 24.59 129.5 24.63 133.94 C24.65 136.03 24.68 138.12 24.7 140.22 C24.82 150.13 24.85 160.02 24.33 169.93 C24.27 171.02 24.27 171.02 24.21 172.14 C23.31 186.64 14.74 198.92 5.31 209.56 C-0.62 214.77 -4.4 216.19 -12.31 216.31 C-13 216.33 -13.68 216.35 -14.39 216.37 C-19.44 216.31 -22.4 215.04 -26.25 211.81 C-26.58 210.82 -26.91 209.83 -27.25 208.81 C-26.69 209.1 -26.14 209.39 -25.56 209.69 C-20.87 211.97 -17.21 213.12 -11.94 213.19 C-10.87 213.22 -9.8 213.24 -8.7 213.27 C-3.57 212.59 0.73 211.02 4.29 207.13 C5.67 205.22 6.91 203.27 8.12 201.25 C8.55 200.58 8.97 199.91 9.41 199.21 C10.19 197.97 10.97 196.72 11.73 195.47 C12.7 193.89 13.72 192.35 14.75 190.81 C15.06 187.75 15.06 187.75 15.01 184.19 C15.01 183.51 15.02 182.84 15.02 182.14 C15.03 179.87 15.03 177.6 15.02 175.33 C15.03 173.7 15.03 172.08 15.04 170.45 C15.05 166.03 15.05 161.61 15.05 157.19 C15.05 153.5 15.06 149.81 15.06 146.11 C15.07 137.41 15.07 128.7 15.07 119.99 C15.06 111.01 15.07 102.03 15.09 93.05 C15.11 85.34 15.12 77.63 15.11 69.91 C15.11 65.31 15.11 60.7 15.13 56.1 C15.14 51.76 15.14 47.43 15.13 43.1 C15.12 41.51 15.13 39.92 15.13 38.33 C15.14 36.16 15.14 33.99 15.12 31.82 C15.12 30.6 15.12 29.39 15.12 28.13 C14.71 24.42 13.6 22.03 11.75 18.81 C10.97 17.44 10.97 17.44 10.17 16.03 C6 9.25 2.13 3.86 -5.19 0.44 C-11.82 -0.92 -16.52 -0.74 -22.43 2.54 C-26.87 5.64 -29.61 9.66 -31.25 14.81 C-31.44 17.34 -31.53 19.76 -31.52 22.29 C-31.52 23.04 -31.53 23.78 -31.53 24.55 C-31.54 27.04 -31.54 29.53 -31.54 32.02 C-31.55 33.81 -31.55 35.6 -31.56 37.38 C-31.58 42.24 -31.58 47.09 -31.58 51.94 C-31.59 54.98 -31.59 58.01 -31.6 61.05 C-31.61 71.64 -31.62 82.23 -31.62 92.83 C-31.62 102.69 -31.64 112.55 -31.67 122.41 C-31.7 130.89 -31.71 139.37 -31.71 147.84 C-31.71 152.9 -31.71 157.96 -31.73 163.02 C-31.75 167.78 -31.75 172.54 -31.74 177.3 C-31.74 179.04 -31.74 180.79 -31.75 182.53 C-31.81 191.59 -31.74 199.65 -27.25 207.81 C-28.24 207.81 -29.23 207.81 -30.25 207.81 C-35.25 199.2 -34.81 190.74 -34.75 181.1 C-34.76 179.31 -34.76 177.52 -34.77 175.72 C-34.78 170.88 -34.77 166.03 -34.75 161.18 C-34.74 156.09 -34.75 151.01 -34.75 145.93 C-34.75 137.4 -34.74 128.86 -34.72 120.33 C-34.69 110.47 -34.69 100.62 -34.7 90.76 C-34.71 81.27 -34.7 71.77 -34.69 62.28 C-34.68 58.24 -34.68 54.2 -34.69 50.17 C-34.69 45.42 -34.68 40.66 -34.66 35.91 C-34.66 34.17 -34.66 32.43 -34.66 30.69 C-34.67 28.3 -34.65 25.92 -34.64 23.54 C-34.64 22.86 -34.65 22.17 -34.66 21.46 C-34.55 13.34 -30.77 6.63 -25.25 0.81 C-17.92 -3.97 -7.73 -4 0 0 Z " fill="#054740" transform="translate(251.25,213.1875)"/>
<path d="M0 0 C3.38 0 3.38 0 7 1 C10.99 5.6 11.57 9.55 11.5 15.43 C11.51 16.27 11.51 17.1 11.52 17.96 C11.53 20.75 11.52 23.54 11.5 26.33 C11.51 28.33 11.51 30.33 11.52 32.34 C11.53 37.77 11.52 43.2 11.5 48.64 C11.49 54.32 11.5 60.01 11.5 65.69 C11.5 75.24 11.49 84.79 11.47 94.34 C11.44 105.38 11.44 116.42 11.45 127.46 C11.46 138.08 11.45 148.7 11.44 159.31 C11.43 163.83 11.43 168.35 11.44 172.87 C11.44 178.2 11.43 183.52 11.41 188.84 C11.41 190.79 11.41 192.75 11.41 194.7 C11.42 197.37 11.4 200.03 11.39 202.69 C11.39 203.47 11.4 204.24 11.41 205.04 C11.35 209.54 10.81 212.45 8 216 C4.73 218.18 3.79 218.63 0 218 C-3.05 215.44 -4.74 213.79 -6 210 C-6.1 207.33 -6.15 204.68 -6.15 202.01 C-6.15 201.19 -6.15 200.36 -6.16 199.52 C-6.17 196.75 -6.17 193.98 -6.18 191.21 C-6.18 189.23 -6.19 187.25 -6.2 185.27 C-6.21 179.88 -6.22 174.49 -6.23 169.1 C-6.24 165.74 -6.24 162.37 -6.25 159.01 C-6.27 148.48 -6.28 137.96 -6.29 127.43 C-6.3 115.28 -6.33 103.12 -6.37 90.96 C-6.4 81.57 -6.41 72.18 -6.42 62.79 C-6.42 57.18 -6.43 51.56 -6.45 45.95 C-6.48 40.67 -6.48 35.4 -6.47 30.12 C-6.47 28.18 -6.48 26.24 -6.49 24.3 C-6.51 21.66 -6.5 19.02 -6.49 16.37 C-6.5 15.6 -6.51 14.84 -6.52 14.05 C-6.45 7.84 -4.31 4.31 0 0 Z M0 4 C-2.48 7.72 -2.28 10.57 -2.26 14.88 C-2.26 15.69 -2.27 16.5 -2.27 17.33 C-2.28 20.06 -2.28 22.79 -2.27 25.51 C-2.28 27.46 -2.28 29.42 -2.29 31.37 C-2.3 36.67 -2.3 41.98 -2.3 47.29 C-2.3 51.72 -2.31 56.15 -2.31 60.58 C-2.32 71.02 -2.32 81.47 -2.32 91.92 C-2.31 102.7 -2.32 113.48 -2.34 124.26 C-2.36 133.52 -2.37 142.77 -2.36 152.02 C-2.36 157.55 -2.36 163.08 -2.38 168.6 C-2.39 173.8 -2.39 179 -2.38 184.2 C-2.37 186.11 -2.38 188.02 -2.38 189.93 C-2.39 192.53 -2.39 195.14 -2.37 197.74 C-2.38 198.5 -2.39 199.25 -2.4 200.03 C-2.35 204.75 -1.41 207.95 1 212 C3.17 211.49 5 211 7 210 C7.07 183.58 7.12 157.17 7.16 130.75 C7.17 118.49 7.19 106.22 7.23 93.96 C7.26 83.27 7.28 72.58 7.28 61.9 C7.29 56.23 7.3 50.57 7.32 44.91 C7.34 39.59 7.34 34.26 7.34 28.94 C7.34 26.98 7.35 25.02 7.36 23.06 C7.37 20.4 7.37 17.73 7.36 15.07 C7.37 14.29 7.38 13.51 7.39 12.7 C7.35 8.64 7.35 8.64 5.73 5 C3.75 3.67 3.75 3.67 0 4 Z " fill="#52FECF" transform="translate(478,212)"/>
<path d="M0 0 C2.88 0.75 2.88 0.75 3.88 1.75 C3.97 3.86 4 5.98 4 8.09 C4 8.76 4.01 9.43 4.01 10.12 C4.01 12.38 4.01 14.64 4 16.9 C4.01 18.52 4.01 20.13 4.01 21.75 C4.01 26.14 4.01 30.54 4.01 34.93 C4.01 39.53 4.01 44.12 4.01 48.71 C4.01 56.42 4.01 64.13 4.01 71.84 C4 80.77 4 89.69 4.01 98.62 C4.01 106.27 4.01 113.92 4.01 121.58 C4.01 126.15 4.01 130.73 4.01 135.3 C4.01 139.6 4.01 143.9 4.01 148.21 C4.01 149.79 4.01 151.37 4.01 152.95 C4.01 155.11 4.01 157.26 4 159.41 C4 160.62 4 161.82 4 163.07 C3.88 165.75 3.88 165.75 2.88 166.75 C-0.56 167 -0.56 167 -4.12 166.75 C-6.52 163.16 -6.38 161.57 -6.39 157.3 C-6.39 156.31 -6.39 156.31 -6.4 155.3 C-6.41 153.09 -6.4 150.89 -6.4 148.68 C-6.4 147.1 -6.41 145.51 -6.42 143.93 C-6.43 139.63 -6.43 135.33 -6.43 131.03 C-6.43 127.45 -6.43 123.86 -6.44 120.28 C-6.45 111.82 -6.45 103.36 -6.44 94.9 C-6.43 86.17 -6.45 77.43 -6.47 68.7 C-6.49 61.21 -6.49 53.72 -6.49 46.22 C-6.49 41.75 -6.49 37.27 -6.5 32.79 C-6.52 28.58 -6.51 24.37 -6.5 20.17 C-6.5 18.62 -6.5 17.07 -6.51 15.52 C-6.52 13.42 -6.51 11.31 -6.5 9.2 C-6.5 8.02 -6.5 6.84 -6.5 5.63 C-6.12 2.75 -6.12 2.75 -4.8 0.83 C-3.12 -0.25 -3.12 -0.25 0 0 Z " fill="#7EFEDB" transform="translate(241.125,237.25)"/>
<path d="M0 0 C0.99 0.33 1.98 0.66 3 1 C1.8 3.49 0.55 5.68 -1 8 C-1.99 8 -2.98 8 -4 8 C-4.02 38.11 -4.04 68.21 -4.05 98.32 C-4.05 101.88 -4.05 105.43 -4.05 108.98 C-4.06 109.69 -4.06 110.4 -4.06 111.13 C-4.06 122.59 -4.07 134.04 -4.08 145.5 C-4.09 157.26 -4.09 169.01 -4.09 180.77 C-4.1 187.37 -4.1 193.98 -4.11 200.58 C-4.11 206.79 -4.11 213 -4.11 219.22 C-4.11 221.5 -4.12 223.78 -4.12 226.07 C-4.12 229.18 -4.12 232.29 -4.12 235.4 C-4.12 236.31 -4.13 237.22 -4.13 238.15 C-4.12 242.23 -4.03 246.02 -3 250 C-4.18 249.07 -5.34 248.13 -6.5 247.19 C-7.15 246.67 -7.8 246.14 -8.47 245.61 C-10 244 -10 244 -10 241 C-10.66 241 -11.32 241 -12 241 C-12.14 211.95 -12.25 182.9 -12.31 153.85 C-12.32 151.16 -12.32 148.48 -12.33 145.79 C-12.33 145.12 -12.33 144.46 -12.33 143.77 C-12.36 132.97 -12.41 122.17 -12.46 111.37 C-12.52 100.28 -12.55 89.2 -12.56 78.11 C-12.57 71.89 -12.59 65.66 -12.63 59.44 C-12.68 53.57 -12.69 47.71 -12.68 41.85 C-12.68 39.7 -12.69 37.55 -12.72 35.4 C-12.92 15.78 -12.92 15.78 -7.57 9.44 C-5.47 7.51 -3.27 5.73 -1 4 C-1 3.01 -1 2.02 -1 1 C-0.67 0.67 -0.34 0.34 0 0 Z " fill="#04D69A" transform="translate(464,191)"/>
<path d="M0 0 C0.33 0 0.66 0 1 0 C1 1.65 1 3.3 1 5 C0.01 5.33 -0.98 5.66 -2 6 C-2 43.62 -2 81.24 -2 120 C-1.71 84.35 -1.71 84.35 -1.43 48.71 C-1.37 41.81 -1.37 41.81 -1.34 38.58 C-1.32 36.33 -1.31 34.07 -1.29 31.82 C-1.27 28.4 -1.24 24.99 -1.21 21.57 C-1.2 20.57 -1.19 19.57 -1.19 18.53 C-1.18 17.61 -1.17 16.69 -1.16 15.74 C-1.15 14.94 -1.15 14.14 -1.14 13.32 C-0.99 10.81 -0.55 8.45 0 6 C1.98 5.67 3.96 5.34 6 5 C5.93 5.65 5.86 6.29 5.78 6.96 C5.04 14.24 4.89 21.41 4.98 28.72 C4.99 29.94 5 31.16 5.01 32.42 C5.03 35.73 5.07 39.05 5.1 42.36 C5.14 45.83 5.16 49.3 5.19 52.78 C5.25 59.34 5.31 65.9 5.37 72.47 C5.45 79.94 5.51 87.42 5.58 94.9 C5.71 110.27 5.85 125.63 6 141 C7.32 141 8.64 141 10 141 C10 141.66 10 142.32 10 143 C7.69 143.33 5.38 143.66 3 144 C2.67 142.68 2.34 141.36 2 140 C0.68 140.33 -0.64 140.66 -2 141 C-6.11 136.21 -8.24 132.34 -8.27 125.97 C-8.28 124.98 -8.28 124 -8.29 122.98 C-8.29 121.91 -8.29 120.83 -8.29 119.73 C-8.3 118.59 -8.3 117.45 -8.31 116.28 C-8.33 112.51 -8.33 108.75 -8.34 104.98 C-8.34 102.36 -8.35 99.74 -8.36 97.12 C-8.37 91.63 -8.37 86.14 -8.37 80.65 C-8.37 74.31 -8.39 67.98 -8.42 61.64 C-8.45 55.54 -8.46 49.43 -8.46 43.32 C-8.46 40.73 -8.47 38.14 -8.48 35.55 C-8.5 31.92 -8.5 28.29 -8.49 24.66 C-8.5 23.59 -8.51 22.53 -8.52 21.43 C-8.45 12.57 -5.97 6.59 0 0 Z " fill="#01FEB8" transform="translate(382,248)"/>
<path d="M0 0 C1 2 1 2 0.57 3.64 C-0.24 7 -0.14 10.33 -0.13 13.77 C-0.14 14.55 -0.14 15.34 -0.14 16.15 C-0.15 18.79 -0.15 21.43 -0.15 24.08 C-0.15 25.97 -0.15 27.86 -0.16 29.75 C-0.16 34.9 -0.17 40.04 -0.17 45.18 C-0.17 49.47 -0.17 53.76 -0.18 58.06 C-0.18 68.18 -0.19 78.31 -0.19 88.43 C-0.18 98.88 -0.2 109.33 -0.21 119.77 C-0.22 128.74 -0.23 137.71 -0.23 146.67 C-0.23 152.03 -0.23 157.39 -0.24 162.75 C-0.25 167.78 -0.25 172.82 -0.24 177.86 C-0.24 179.71 -0.25 181.56 -0.25 183.41 C-0.26 185.93 -0.25 188.45 -0.25 190.98 C-0.25 191.71 -0.26 192.44 -0.26 193.19 C-0.23 197.5 0.42 200.99 2 205 C0.68 205.33 -0.64 205.66 -2 206 C-2.82 204.9 -3.63 203.79 -4.44 202.69 C-4.89 202.07 -5.34 201.46 -5.81 200.82 C-8.37 196.9 -8.15 193.01 -8.14 188.5 C-8.14 187.73 -8.15 186.96 -8.15 186.16 C-8.16 183.57 -8.16 180.98 -8.16 178.39 C-8.17 176.53 -8.17 174.68 -8.18 172.83 C-8.19 167.78 -8.2 162.74 -8.2 157.7 C-8.2 154.55 -8.21 151.4 -8.21 148.25 C-8.23 138.4 -8.24 128.55 -8.24 118.7 C-8.24 107.32 -8.26 95.94 -8.29 84.57 C-8.31 75.78 -8.32 66.99 -8.32 58.2 C-8.32 52.94 -8.33 47.69 -8.35 42.44 C-8.36 37.5 -8.37 32.56 -8.36 27.62 C-8.36 25.81 -8.36 23.99 -8.37 22.18 C-8.38 19.7 -8.38 17.23 -8.37 14.76 C-8.38 14.04 -8.38 13.32 -8.39 12.58 C-8.35 8.22 -7.7 5.45 -5 2 C-2.31 0.69 -2.31 0.69 0 0 Z " fill="#04382E" transform="translate(437,218)"/>
<path d="M0 0 C3.7 0.88 5.22 2.75 7.62 5.62 C8.8 9.14 8.76 12.29 8.74 15.94 C8.74 16.68 8.74 17.43 8.74 18.19 C8.74 20.64 8.73 23.09 8.72 25.54 C8.72 27.24 8.72 28.94 8.72 30.64 C8.71 35.12 8.7 39.59 8.69 44.06 C8.68 48.63 8.68 53.19 8.67 57.76 C8.66 66.71 8.65 75.67 8.62 84.62 C7.97 84.62 7.31 84.62 6.62 84.62 C6.48 85.59 6.34 86.56 6.19 87.56 C5.62 90.62 5.62 90.62 4.62 91.62 C-1.84 91.98 -1.84 91.98 -5.38 89.62 C-7.94 86.03 -7.64 82.16 -7.6 77.92 C-7.6 77.15 -7.6 76.38 -7.6 75.58 C-7.6 73.04 -7.59 70.5 -7.57 67.95 C-7.57 66.19 -7.56 64.42 -7.56 62.66 C-7.55 58.01 -7.53 53.37 -7.51 48.73 C-7.49 43.99 -7.48 39.25 -7.47 34.51 C-7.45 25.22 -7.42 15.92 -7.38 6.62 C-6.72 6.3 -6.06 5.96 -5.38 5.62 C-4.94 4.78 -4.51 3.93 -4.06 3.06 C-2.38 0.62 -2.38 0.62 0 0 Z " fill="#5DFED2" transform="translate(159.375,273.375)"/>
<path d="M0 0 C2.44 1.94 2.44 1.94 4 4 C4 4.66 4 5.32 4 6 C4.66 6 5.32 6 6 6 C6.07 44.01 6.12 82.01 6.15 120.02 C6.16 124.5 6.16 128.99 6.16 133.47 C6.17 134.36 6.17 135.26 6.17 136.18 C6.18 150.64 6.2 165.11 6.23 179.57 C6.26 194.41 6.28 209.25 6.28 224.09 C6.29 233.25 6.3 242.41 6.32 251.57 C6.34 257.84 6.34 264.12 6.34 270.4 C6.34 274.02 6.34 277.64 6.36 281.27 C6.37 285.2 6.37 289.12 6.36 293.05 C6.37 294.2 6.38 295.35 6.39 296.53 C6.38 297.58 6.38 298.63 6.37 299.72 C6.37 301.07 6.37 301.07 6.37 302.46 C5.82 306.23 4.25 309.02 1.25 311.38 C-2.86 312.52 -6.53 311.71 -10.31 309.88 C-15.28 304.36 -14.29 295.88 -14.29 288.96 C-14.29 287.75 -14.3 286.54 -14.31 285.29 C-14.32 281.95 -14.33 278.6 -14.33 275.25 C-14.34 271.64 -14.36 268.02 -14.37 264.41 C-14.41 255.69 -14.42 246.97 -14.44 238.25 C-14.44 234.14 -14.45 230.03 -14.46 225.92 C-14.49 212.27 -14.52 198.61 -14.53 184.96 C-14.53 184.08 -14.53 183.21 -14.53 182.31 C-14.53 181 -14.53 181 -14.53 179.66 C-14.53 177.88 -14.53 176.11 -14.54 174.34 C-14.54 173.46 -14.54 172.58 -14.54 171.67 C-14.55 157.4 -14.59 143.14 -14.65 128.87 C-14.71 114.22 -14.74 99.57 -14.74 84.91 C-14.74 76.69 -14.76 68.46 -14.8 60.24 C-14.84 53.24 -14.85 46.24 -14.83 39.24 C-14.83 35.67 -14.83 32.1 -14.86 28.52 C-14.9 24.65 -14.88 20.78 -14.86 16.91 C-14.87 15.78 -14.89 14.65 -14.91 13.49 C-14.81 6.12 -14.81 6.12 -12.51 2.94 C-8.33 -0.88 -5.65 -1.92 0 0 Z M-11 6 C-12.22 8.45 -12.13 10.03 -12.13 12.77 C-12.14 13.79 -12.14 14.8 -12.15 15.85 C-12.15 16.97 -12.15 18.09 -12.15 19.25 C-12.15 20.43 -12.15 21.62 -12.16 22.84 C-12.17 26.14 -12.17 29.44 -12.17 32.75 C-12.18 36.3 -12.19 39.86 -12.2 43.42 C-12.22 52.01 -12.23 60.61 -12.24 69.2 C-12.24 73.25 -12.25 77.3 -12.25 81.34 C-12.27 94.79 -12.28 108.23 -12.29 121.68 C-12.29 125.17 -12.29 128.66 -12.3 132.15 C-12.3 133.02 -12.3 133.89 -12.3 134.78 C-12.3 148.84 -12.33 162.89 -12.36 176.95 C-12.4 191.38 -12.41 205.8 -12.42 220.23 C-12.42 228.33 -12.43 236.43 -12.45 244.53 C-12.48 251.43 -12.48 258.33 -12.47 265.23 C-12.47 268.75 -12.47 272.27 -12.49 275.8 C-12.51 279.61 -12.5 283.43 -12.49 287.24 C-12.5 288.36 -12.51 289.47 -12.52 290.62 C-12.46 298.13 -11.36 301.64 -6 307 C-2.4 307 -1.07 306.06 1.63 303.67 C5.26 299.09 4.68 293.94 4.61 288.35 C4.62 287.17 4.63 285.99 4.63 284.78 C4.64 281.51 4.63 278.24 4.61 274.97 C4.59 271.45 4.6 267.92 4.61 264.39 C4.62 257.48 4.61 250.57 4.58 243.67 C4.55 235.62 4.55 227.58 4.55 219.53 C4.55 205.17 4.53 190.82 4.49 176.46 C4.45 162.53 4.43 148.6 4.43 134.67 C4.43 133.81 4.43 132.96 4.42 132.07 C4.42 131.22 4.42 130.36 4.42 129.48 C4.42 127.75 4.42 126.03 4.42 124.31 C4.42 123.46 4.42 122.61 4.42 121.73 C4.42 108.45 4.4 95.18 4.38 81.9 C4.37 77.09 4.37 72.28 4.37 67.47 C4.36 59.84 4.35 52.21 4.32 44.57 C4.31 41.09 4.31 37.6 4.31 34.12 C4.3 30.33 4.29 26.55 4.27 22.77 C4.28 21.67 4.28 20.57 4.28 19.44 C4.24 13.94 4.05 9.15 2 4 C-3.51 0.75 -6.45 1.93 -11 6 Z " fill="#30FEC6" transform="translate(324,165)"/>
<path d="M0 0 C5.45 4.44 8.55 10.63 9.47 17.53 C9.66 21.76 9.7 25.97 9.68 30.2 C9.69 31.82 9.7 33.44 9.71 35.06 C9.75 39.43 9.75 43.8 9.74 48.17 C9.73 51.83 9.74 55.49 9.76 59.15 C9.78 67.79 9.78 76.43 9.76 85.07 C9.74 93.96 9.77 102.85 9.82 111.75 C9.86 119.4 9.87 127.06 9.86 134.71 C9.86 139.28 9.86 143.84 9.89 148.4 C9.92 152.69 9.91 156.98 9.88 161.28 C9.88 162.84 9.88 164.41 9.9 165.98 C10.01 176.08 8.55 183 2 191 C0.83 187.49 0.87 184.34 0.89 180.68 C0.89 179.93 0.89 179.18 0.89 178.4 C0.89 175.88 0.89 173.36 0.9 170.83 C0.9 169.03 0.91 167.22 0.91 165.41 C0.91 161.52 0.92 157.62 0.92 153.73 C0.94 147.57 0.94 141.42 0.95 135.26 C0.96 121.08 0.98 106.91 1.01 92.73 C1.03 79.74 1.04 66.75 1.05 53.76 C1.06 47.64 1.07 41.51 1.08 35.39 C1.09 31.59 1.09 27.78 1.09 23.98 C1.1 22.21 1.1 20.44 1.11 18.67 C1.11 16.26 1.11 13.86 1.11 11.45 C1.12 10.74 1.12 10.04 1.12 9.32 C1.12 6.06 1 3.11 0 0 Z " fill="#05D79B" transform="translate(258,224)"/>
<path d="M0 0 C-0.33 0.66 -0.66 1.32 -1 2 C-1.63 1.95 -2.26 1.91 -2.91 1.86 C-9.24 1.59 -13.85 2.15 -19 6 C-25.68 12.23 -31.06 19.01 -31.51 28.39 C-31.53 30.46 -31.53 32.54 -31.52 34.61 C-31.52 35.75 -31.53 36.89 -31.54 38.07 C-31.56 41.81 -31.54 45.56 -31.53 49.31 C-31.53 51.93 -31.54 54.54 -31.54 57.16 C-31.55 62.63 -31.54 68.11 -31.52 73.58 C-31.5 79.89 -31.51 86.2 -31.53 92.52 C-31.55 98.61 -31.55 104.7 -31.54 110.8 C-31.53 113.38 -31.54 115.96 -31.55 118.55 C-31.56 122.16 -31.54 125.77 -31.52 129.39 C-31.53 130.98 -31.53 130.98 -31.54 132.61 C-31.42 143.11 -27.46 149.3 -20.36 156.86 C-15.34 161.42 -9.93 162.62 -3.23 162.34 C4.21 161.2 8.66 156.85 13 151 C13.68 152.78 13.68 152.78 14 155 C11.03 159.68 6.41 162.95 1.16 164.56 C-6.28 166.08 -12.04 165.31 -18.7 161.6 C-22.53 158.94 -25.16 155.66 -28 152 C-28.77 151.09 -29.53 150.19 -30.32 149.25 C-39 138.97 -41.16 131.13 -41.13 117.97 C-41.13 117.11 -41.13 116.24 -41.13 115.35 C-41.14 112.52 -41.14 109.68 -41.13 106.85 C-41.13 104.86 -41.13 102.88 -41.14 100.89 C-41.14 96.74 -41.14 92.59 -41.13 88.44 C-41.12 83.14 -41.13 77.83 -41.13 72.53 C-41.14 68.43 -41.14 64.34 -41.13 60.24 C-41.13 58.28 -41.13 56.33 -41.14 54.37 C-41.14 51.64 -41.13 48.9 -41.13 46.16 C-41.13 45.36 -41.13 44.56 -41.14 43.74 C-41.08 28.41 -41.08 28.41 -36 22 C-35.42 21.22 -34.85 20.44 -34.25 19.63 C-30.7 14.88 -30.7 14.88 -29 13 C-28.34 13 -27.68 13 -27 13 C-26.83 12.32 -26.67 11.64 -26.5 10.94 C-23.83 5.71 -19.29 2.12 -14.06 -0.44 C-9.56 -1.27 -4.21 -2.11 0 0 Z " fill="#047050" transform="translate(406,238)"/>
<path d="M0 0 C7.37 3.1 12.59 7.01 16.14 14.36 C17.69 18.78 18.13 22.5 17.57 27.15 C16.99 32.72 16.87 38.19 16.9 43.79 C16.9 44.81 16.91 45.82 16.91 46.87 C16.91 49.05 16.92 51.24 16.92 53.43 C16.94 56.9 16.94 60.37 16.95 63.84 C16.96 72.45 16.99 81.07 17.01 89.68 C17.03 96.97 17.05 104.27 17.06 111.56 C17.06 114.96 17.07 118.36 17.09 121.76 C17.16 149.27 17.16 149.27 14 154 C13.5 153.01 13.5 153.01 13 152 C11.51 152.99 11.51 152.99 10 154 C10.49 152.41 10.49 152.41 10.99 150.79 C12.41 145.03 12.26 139.33 12.23 133.43 C12.23 132.19 12.23 130.95 12.23 129.68 C12.23 126.3 12.22 122.92 12.2 119.54 C12.19 116.01 12.19 112.47 12.19 108.93 C12.18 102.24 12.16 95.55 12.14 88.86 C12.12 81.24 12.11 73.62 12.1 66 C12.08 50.33 12.04 34.67 12 19 C11.34 19 10.68 19 10 19 C9.67 18.34 9.34 17.68 9 17 C6.47 16.34 6.47 16.34 4 16 C4.16 16.75 4.33 17.5 4.49 18.27 C5.19 23.4 5.13 28.44 5.11 33.6 C5.11 34.77 5.11 35.93 5.11 37.12 C5.11 40.96 5.11 44.79 5.1 48.62 C5.1 51.28 5.09 53.94 5.09 56.6 C5.09 62.87 5.08 69.15 5.07 75.43 C5.06 82.58 5.06 89.73 5.05 96.89 C5.04 111.59 5.02 126.3 5 141 C4.67 141 4.34 141 4 141 C4 140.41 4 139.82 3.99 139.21 C3.93 124.84 3.86 110.47 3.76 96.09 C3.72 89.14 3.68 82.19 3.65 75.24 C3.63 68.53 3.59 61.82 3.54 55.11 C3.52 52.55 3.51 49.99 3.5 47.43 C3.49 43.85 3.46 40.26 3.43 36.67 C3.43 35.09 3.43 35.09 3.44 33.48 C3.35 26.81 3.02 19.61 -1.45 14.27 C-3.68 12.44 -5.35 12.7 -8.19 12.81 C-9.09 12.84 -9.99 12.87 -10.92 12.89 C-11.61 12.93 -12.29 12.96 -13 13 C-13 12.01 -13 11.02 -13 10 C-13.66 10 -14.32 10 -15 10 C-15 9.01 -15 8.02 -15 7 C-15.99 6.67 -16.98 6.34 -18 6 C-15.64 3.47 -14.34 2.11 -11 1 C-9.29 0.96 -7.58 0.96 -5.88 1 C-4.25 1.04 -2.62 1.05 -1 1 C-0.67 0.67 -0.34 0.34 0 0 Z " fill="#12F9B9" transform="translate(406,238)"/>
<path d="M0 0 C4.75 0.75 4.75 0.75 7 3 C7.25 5.03 7.25 5.03 7.25 7.59 C7.26 9.04 7.26 9.04 7.27 10.51 C7.27 11.58 7.26 12.64 7.26 13.74 C7.26 14.85 7.27 15.97 7.27 17.12 C7.28 20.83 7.27 24.54 7.27 28.25 C7.27 30.81 7.27 33.38 7.27 35.95 C7.27 41.34 7.27 46.73 7.26 52.12 C7.25 58.35 7.25 64.58 7.26 70.82 C7.27 76.81 7.27 82.8 7.27 88.79 C7.27 91.34 7.27 93.9 7.27 96.45 C7.28 100.01 7.27 103.57 7.26 107.13 C7.26 108.2 7.27 109.26 7.27 110.35 C7.27 111.32 7.26 112.29 7.25 113.29 C7.25 114.13 7.25 114.97 7.25 115.84 C7 118 7 118 5 121 C2.44 121.25 2.44 121.25 0 121 C-1.61 119.39 -1.13 117.68 -1.13 115.46 C-1.13 114.48 -1.13 113.5 -1.14 112.48 C-1.13 111.4 -1.13 110.31 -1.13 109.19 C-1.13 108.06 -1.13 106.92 -1.13 105.75 C-1.14 101.97 -1.14 98.19 -1.13 94.41 C-1.13 91.8 -1.13 89.18 -1.14 86.57 C-1.14 81.08 -1.14 75.59 -1.13 70.1 C-1.12 63.75 -1.13 57.4 -1.13 51.05 C-1.14 44.95 -1.14 38.85 -1.13 32.75 C-1.13 30.15 -1.13 27.55 -1.14 24.95 C-1.14 21.32 -1.13 17.69 -1.13 14.06 C-1.13 12.98 -1.13 11.9 -1.14 10.79 C-1.13 9.8 -1.13 8.81 -1.13 7.8 C-1.13 6.94 -1.13 6.08 -1.13 5.19 C-1 3 -1 3 0 0 Z " fill="#83FEDD" transform="translate(397,259)"/>
<path d="M0 0 C5.47 0.33 10.48 1.6 15.69 3.25 C16.33 3.44 16.97 3.63 17.63 3.83 C22.19 5.34 24.93 7.33 28 11 C28.5 12.49 28.5 12.49 29 14 C29.66 14 30.32 14 31 14 C33.37 18.9 34.37 22.44 34.36 27.97 C34.36 28.96 34.36 28.96 34.36 29.97 C34.37 32.12 34.35 34.27 34.33 36.42 C34.33 37.92 34.32 39.43 34.32 40.93 C34.32 44.08 34.3 47.22 34.28 50.36 C34.25 54.39 34.24 58.41 34.24 62.44 C34.23 65.54 34.22 68.64 34.21 71.74 C34.21 73.23 34.2 74.71 34.2 76.2 C34.19 78.27 34.18 80.34 34.16 82.41 C34.15 83.59 34.15 84.77 34.14 85.98 C34.02 88.51 33.74 90.6 33 93 C32.34 93 31.68 93 31 93 C30.45 95.08 30 96.84 30 99 C30.99 99.99 30.99 99.99 32 101 C24 103.67 16 106.33 8 109 C6.94 109.36 5.88 109.72 4.79 110.1 C-1.63 112.18 -7.29 111.67 -13.38 108.81 C-17.14 106.72 -19.71 104.73 -22 101 C-22.41 100.38 -22.82 99.76 -23.25 99.12 C-24.33 96.07 -24.12 93.21 -24 90 C-22.24 92.63 -21.04 95.07 -19.75 97.94 C-17.54 102.4 -15.58 104.76 -11 107 C-1.23 109.84 7.98 107.02 17 103 C20.6 100.59 23.48 98.13 25 94 C25.19 91.49 25.28 89.09 25.27 86.57 C25.28 85.83 25.28 85.09 25.29 84.32 C25.3 81.88 25.3 79.43 25.3 76.98 C25.3 75.27 25.31 73.56 25.31 71.86 C25.32 68.28 25.32 64.71 25.32 61.13 C25.31 56.55 25.33 51.98 25.35 47.4 C25.36 43.88 25.37 40.36 25.36 36.83 C25.36 35.15 25.37 33.46 25.38 31.77 C25.39 29.41 25.38 27.05 25.37 24.69 C25.38 23.99 25.39 23.3 25.4 22.59 C25.35 18.02 24.43 14.87 22 11 C19.54 9.77 19.54 9.77 17 9 C16.58 8.53 16.16 8.06 15.72 7.58 C13.36 5.41 10.99 4.85 7.94 3.94 C2.21 2.21 2.21 2.21 0 0 Z " fill="#07986D" transform="translate(162,265)"/>
<path d="M0 0 C0.66 0.33 1.32 0.66 2 1 C2 1.72 2 2.44 1.99 3.18 C1.88 45.85 1.8 88.52 1.74 131.2 C1.74 136.32 1.73 141.44 1.73 146.57 C1.72 147.59 1.72 148.61 1.72 149.66 C1.7 166.18 1.66 182.69 1.61 199.21 C1.57 216.15 1.54 233.1 1.53 250.05 C1.52 260.51 1.5 270.96 1.46 281.42 C1.43 288.59 1.43 295.76 1.43 302.94 C1.44 307.07 1.43 311.21 1.4 315.35 C1.38 319.14 1.38 322.93 1.4 326.72 C1.4 328.73 1.38 330.75 1.35 332.76 C1.42 340.51 2.44 346.58 7 353 C12.23 357.92 18.03 358.39 24.91 358.36 C30.45 357.71 34.15 354.85 38 351 C38.99 351 39.98 351 41 351 C38.92 355.89 35.69 357.77 31 360 C24.48 362.23 18.44 362.66 12 360 C5.71 356.24 1.38 352.03 -1 345 C-1.25 342.19 -1.25 342.19 -1.25 339.05 C-1.25 337.85 -1.26 336.65 -1.26 335.42 C-1.26 334.1 -1.25 332.79 -1.25 331.44 C-1.25 330.02 -1.25 328.61 -1.25 327.2 C-1.26 323.31 -1.25 319.43 -1.25 315.55 C-1.24 311.36 -1.25 307.18 -1.25 302.99 C-1.25 294.79 -1.25 286.59 -1.24 278.39 C-1.23 268.84 -1.23 259.3 -1.23 249.75 C-1.23 232.72 -1.22 215.7 -1.21 198.67 C-1.19 182.14 -1.18 165.6 -1.19 149.07 C-1.19 147.54 -1.19 147.54 -1.19 145.98 C-1.19 144.97 -1.19 143.95 -1.19 142.9 C-1.19 124.09 -1.18 105.29 -1.17 86.48 C-1.17 79.82 -1.17 73.16 -1.17 66.5 C-1.17 58.39 -1.16 50.28 -1.15 42.17 C-1.15 38.03 -1.14 33.89 -1.15 29.75 C-1.15 25.97 -1.14 22.18 -1.14 18.39 C-1.13 16.37 -1.14 14.34 -1.14 12.32 C-1.14 11.12 -1.13 9.93 -1.13 8.7 C-1.13 7.66 -1.13 6.63 -1.13 5.56 C-1 3 -1 3 0 0 Z " fill="#004643" transform="translate(298,148)"/>
<path d="M0 0 C5.51 3.82 8.89 7.54 11 14 C11.38 17.56 11.38 17.56 11.4 21.4 C11.41 22.11 11.41 22.83 11.42 23.56 C11.44 25.93 11.43 28.3 11.43 30.68 C11.44 32.39 11.45 34.1 11.46 35.81 C11.49 40.45 11.5 45.1 11.51 49.75 C11.52 54.67 11.54 59.59 11.57 64.51 C11.61 73.88 11.64 83.25 11.66 92.62 C11.69 103.08 11.73 113.54 11.78 124 C11.86 141.86 11.91 159.73 11.95 177.6 C11.97 188.13 12.01 198.65 12.09 209.18 C12.13 214.12 12.16 219.07 12.19 224.01 C12.2 226.16 12.22 228.32 12.24 230.47 C12.28 233.33 12.29 236.19 12.3 239.04 C12.33 240.23 12.33 240.23 12.35 241.45 C12.34 248.1 10.73 253.95 7.44 259.75 C2.08 264.69 -3.69 267.3 -11 267.62 C-21.16 267.12 -27.5 262.08 -34.38 254.99 C-36 253 -36 253 -36 251 C-32.85 252.41 -30.55 254.12 -28 256.44 C-21.24 262.55 -17.02 264.44 -7.82 264.34 C-3.35 263.8 -0.31 262 3 259 C6.3 254.76 8.12 251.34 8.13 245.96 C8.14 244.73 8.14 244.73 8.14 243.47 C8.14 242.56 8.14 241.66 8.14 240.73 C8.14 239.77 8.15 238.8 8.15 237.81 C8.16 234.58 8.16 231.34 8.16 228.11 C8.17 225.79 8.17 223.48 8.18 221.16 C8.19 214.87 8.2 208.57 8.2 202.27 C8.2 198.34 8.21 194.41 8.21 190.47 C8.22 179.58 8.23 168.69 8.24 157.8 C8.24 157.11 8.24 156.41 8.24 155.69 C8.24 154.99 8.24 154.3 8.24 153.58 C8.24 152.16 8.24 150.74 8.24 149.33 C8.24 148.27 8.24 148.27 8.24 147.2 C8.24 135.82 8.26 124.45 8.29 113.07 C8.31 101.39 8.32 89.71 8.32 78.03 C8.32 71.47 8.33 64.91 8.35 58.35 C8.36 52.19 8.37 46.02 8.36 39.85 C8.36 37.58 8.36 35.32 8.37 33.05 C8.38 29.96 8.38 26.87 8.37 23.78 C8.38 22.89 8.38 21.99 8.39 21.07 C8.34 14.62 7.5 9.5 2.75 4.75 C-3.35 0.87 -8.79 -1.16 -16 0 C-18.84 1.08 -21.4 2.45 -24 4 C-24.99 4.5 -24.99 4.5 -26 5 C-25.79 3.14 -25.79 3.14 -25 1 C-16.95 -3.99 -8.3 -4.46 0 0 Z " fill="#0A4F43" transform="translate(491,188)"/>
<path d="M0 0 C3.55 0.1 4.57 0.36 7.62 2.44 C12.29 9.22 11.98 16.91 11.96 24.85 C11.97 26.53 11.97 26.53 11.98 28.24 C11.99 31.92 11.99 35.6 11.99 39.28 C11.99 41.85 12 44.41 12 46.98 C12.01 52.36 12.01 57.73 12 63.11 C12 69.3 12.01 75.5 12.03 81.69 C12.05 87.68 12.05 93.66 12.05 99.64 C12.05 102.18 12.06 104.71 12.07 107.25 C12.08 110.8 12.07 114.35 12.06 117.89 C12.07 119.45 12.07 119.45 12.08 121.05 C12.04 127.02 11.79 133.16 8.69 138.44 C4.55 141.01 0.44 141.16 -4.31 140.44 C-7.66 137.72 -7.8 134.58 -8.31 130.44 C-8.46 126.51 -8.46 122.58 -8.46 118.65 C-8.46 117.47 -8.46 116.29 -8.47 115.07 C-8.48 111.85 -8.48 108.62 -8.48 105.39 C-8.48 103.37 -8.48 101.35 -8.49 99.34 C-8.49 92.29 -8.5 85.24 -8.5 78.19 C-8.5 71.63 -8.51 65.07 -8.52 58.51 C-8.54 52.87 -8.54 47.22 -8.54 41.58 C-8.54 38.21 -8.54 34.85 -8.55 31.48 C-8.56 27.73 -8.56 23.98 -8.56 20.22 C-8.56 19.11 -8.57 18 -8.57 16.86 C-8.5 0.24 -8.5 0.24 0 0 Z M-4.31 6.44 C-4.31 7.43 -4.31 8.42 -4.31 9.44 C-5.3 9.77 -6.29 10.1 -7.31 10.44 C-7.36 24.82 -7.39 39.19 -7.42 53.57 C-7.43 60.25 -7.44 66.93 -7.46 73.61 C-7.49 80.06 -7.5 86.51 -7.5 92.96 C-7.51 95.41 -7.51 97.87 -7.52 100.32 C-7.73 117.99 -7.73 117.99 -5.31 135.44 C-2.56 136.35 -0.95 136.55 1.88 136.5 C3.76 136.47 3.76 136.47 5.69 136.44 C9.04 130.17 9.1 124.74 9.03 117.72 C9.03 116.56 9.03 115.4 9.03 114.2 C9.03 110.37 9 106.55 8.98 102.72 C8.97 100.06 8.97 97.41 8.97 94.75 C8.96 88.48 8.93 82.2 8.9 75.93 C8.87 68.79 8.85 61.65 8.84 54.5 C8.81 39.81 8.75 25.13 8.69 10.44 C8.03 10.44 7.37 10.44 6.69 10.44 C6.54 9.8 6.4 9.16 6.25 8.5 C5.88 6.46 5.88 6.46 4.69 5.44 C1.32 5.29 -1.1 5.37 -4.31 6.44 Z " fill="#31FEC5" transform="translate(398.3125,249.5625)"/>
<path d="M0 0 C0.33 0 0.66 0 1 0 C1 1.65 1 3.3 1 5 C0.01 5.33 -0.98 5.66 -2 6 C-2.33 49.23 -2.66 92.46 -3 137 C-2.34 137 -1.68 137 -1 137 C-1.5 138.98 -1.5 138.98 -2 141 C-6.11 136.21 -8.24 132.34 -8.27 125.97 C-8.28 124.98 -8.28 124 -8.29 122.98 C-8.29 121.91 -8.29 120.83 -8.29 119.73 C-8.3 118.59 -8.3 117.45 -8.31 116.28 C-8.33 112.51 -8.33 108.75 -8.34 104.98 C-8.34 102.36 -8.35 99.74 -8.36 97.12 C-8.37 91.63 -8.37 86.14 -8.37 80.65 C-8.37 74.31 -8.39 67.98 -8.42 61.64 C-8.45 55.54 -8.46 49.43 -8.46 43.32 C-8.46 40.73 -8.47 38.14 -8.48 35.55 C-8.5 31.92 -8.5 28.29 -8.49 24.66 C-8.5 23.59 -8.51 22.53 -8.52 21.43 C-8.45 12.57 -5.97 6.59 0 0 Z " fill="#05D096" transform="translate(382,248)"/>
<path d="M0 0 C0.66 0 1.32 0 2 0 C2 0.66 2 1.32 2 2 C3.07 2 4.15 2 5.25 2 C9 3 9 3 11.21 6.09 C14.14 12.53 13.51 19.63 13.43 26.55 C13.42 28.06 13.42 29.56 13.42 31.07 C13.41 34.21 13.39 37.35 13.36 40.49 C13.32 44.52 13.3 48.54 13.29 52.57 C13.28 56.42 13.26 60.27 13.24 64.11 C13.23 64.85 13.23 65.58 13.23 66.33 C13.22 68.4 13.2 70.47 13.18 72.54 C13.17 73.72 13.16 74.9 13.15 76.11 C13 79 13 79 12 82 C11.34 82 10.68 82 10 82 C9.67 82.99 9.34 83.98 9 85 C8.01 85.5 8.01 85.5 7 86 C7.99 86.66 8.98 87.32 10 88 C7.24 89.38 5.05 89.19 2 89 C1.34 88.34 0.68 87.68 0 87 C1.37 84.5 1.37 84.5 3 82 C3.66 82 4.32 82 5 82 C5.05 72.73 5.08 63.47 5.1 54.2 C5.11 49.9 5.13 45.59 5.15 41.29 C5.17 37.13 5.18 32.98 5.19 28.82 C5.19 27.24 5.2 25.66 5.21 24.07 C5.23 21.85 5.23 19.63 5.23 17.4 C5.23 16.14 5.24 14.88 5.24 13.58 C4.98 9.72 4.19 6.66 3 3 C2.34 3 1.68 3 1 3 C0.67 2.01 0.34 1.02 0 0 Z " fill="#046348" transform="translate(190,276)"/>
<path d="M0 0 C-0.66 0.33 -1.32 0.66 -2 1 C-4.12 0.06 -4.12 0.06 -6 -1 C-6.33 -0.01 -6.66 0.98 -7 2 C-7.99 2 -8.98 2 -10 2 C-10 2.66 -10 3.32 -10 4 C-10.66 4 -11.32 4 -12 4 C-12 3.34 -12 2.68 -12 2 C-13.79 2.06 -15.58 2.15 -17.38 2.25 C-18.37 2.3 -19.37 2.34 -20.4 2.39 C-23.15 2.72 -23.15 2.72 -24.35 5.05 C-24.57 5.69 -24.78 6.34 -25 7 C-25.99 7 -26.98 7 -28 7 C-29.8 11.62 -30.28 15.72 -30.25 20.63 C-30.25 21.38 -30.25 22.12 -30.25 22.9 C-30.26 25.39 -30.25 27.89 -30.24 30.38 C-30.24 32.18 -30.25 33.97 -30.25 35.77 C-30.25 40.63 -30.25 45.5 -30.24 50.36 C-30.23 55.46 -30.23 60.55 -30.23 65.65 C-30.23 74.2 -30.22 82.75 -30.21 91.31 C-30.19 101.2 -30.18 111.08 -30.19 120.97 C-30.19 131.5 -30.18 142.03 -30.17 152.56 C-30.17 155.59 -30.17 158.63 -30.17 161.66 C-30.17 166.43 -30.16 171.19 -30.15 175.96 C-30.15 177.71 -30.15 179.46 -30.15 181.21 C-30.15 183.59 -30.14 185.98 -30.13 188.37 C-30.14 189.06 -30.14 189.75 -30.14 190.46 C-30.12 194.41 -29.75 198.13 -29 202 C-26.53 201.01 -26.53 201.01 -24 200 C-23.86 201.11 -23.71 202.23 -23.56 203.38 C-23.22 206.82 -23.22 206.82 -22 209 C-24 208 -26 207 -28 206 C-28.5 206.99 -28.5 206.99 -29 208 C-29 207.01 -29 206.02 -29 205 C-29.63 203.63 -30.29 202.27 -30.97 200.93 C-34.09 193.29 -33.56 185.3 -33.52 177.19 C-33.52 175.4 -33.53 173.61 -33.54 171.82 C-33.56 166.98 -33.55 162.14 -33.54 157.3 C-33.53 152.22 -33.54 147.14 -33.54 142.07 C-33.55 133.54 -33.54 125.02 -33.52 116.5 C-33.5 106.66 -33.51 96.82 -33.53 86.97 C-33.55 78.51 -33.55 70.04 -33.54 61.58 C-33.53 56.53 -33.53 51.48 -33.55 46.43 C-33.56 41.69 -33.55 36.94 -33.53 32.19 C-33.52 30.46 -33.52 28.72 -33.53 26.98 C-33.61 9.34 -33.61 9.34 -27.25 1.98 C-17.89 -5.5 -10.45 -5.42 0 0 Z " fill="#21DAA9" transform="translate(252,216)"/>
<path d="M0 0 C3.51 3.51 3.13 6.91 3.14 11.64 C3.14 12.32 3.15 13 3.15 13.7 C3.16 15.98 3.16 18.25 3.16 20.53 C3.17 22.16 3.17 23.79 3.18 25.42 C3.19 29.86 3.2 34.29 3.2 38.73 C3.2 41.49 3.21 44.26 3.21 47.03 C3.23 55.69 3.24 64.34 3.24 73 C3.24 83 3.26 93 3.29 103 C3.31 110.73 3.32 118.45 3.32 126.18 C3.32 130.8 3.33 135.41 3.35 140.03 C3.36 144.37 3.37 148.71 3.36 153.05 C3.36 154.65 3.36 156.24 3.37 157.84 C3.38 160.01 3.38 162.18 3.37 164.36 C3.37 165.57 3.37 166.79 3.37 168.05 C3 171 3 171 0 174 C0 116.58 0 59.16 0 0 Z " fill="#049C6E" transform="translate(264,233)"/>
<path d="M0 0 C3.67 3.67 3.13 8.47 3.14 13.43 C3.15 14.73 3.15 16.02 3.16 17.36 C3.16 18.79 3.16 20.23 3.16 21.66 C3.17 23.17 3.17 24.68 3.18 26.2 C3.19 30.3 3.2 34.4 3.2 38.51 C3.2 41.07 3.21 43.63 3.21 46.19 C3.23 54.21 3.24 62.23 3.24 70.24 C3.24 79.5 3.26 88.76 3.29 98.02 C3.31 105.18 3.32 112.33 3.32 119.49 C3.32 123.77 3.33 128.04 3.35 132.32 C3.36 136.33 3.37 140.35 3.36 144.37 C3.36 145.84 3.36 147.32 3.37 148.79 C3.38 150.8 3.38 152.82 3.37 154.83 C3.37 155.95 3.37 157.08 3.37 158.24 C3 161 3 161 0 164 C0 109.88 0 55.76 0 0 Z " fill="#02694A" transform="translate(267,238)"/>
<path d="M0 0 C2.39 0.74 3.71 1.47 4.93 3.69 C5.67 5.44 6.34 7.22 7 9 C7.99 9 8.98 9 10 9 C11.84 10.84 11.13 13.81 11.13 16.27 C11.13 17.57 11.14 18.87 11.14 20.21 C11.13 21.24 11.13 21.24 11.13 22.29 C11.13 24.33 11.13 26.37 11.14 28.42 C11.13 36 10.87 43.46 10 51 C9.34 50.01 8.68 49.02 8 48 C7.99 48.59 7.97 49.19 7.96 49.8 C7.88 52.53 7.78 55.27 7.69 58 C7.65 59.4 7.65 59.4 7.62 60.83 C7.39 66.85 6.54 71.52 4 77 C1.81 79 1.81 79 0 80 C-1.04 76.87 -0.93 76.01 0 73 C0.66 73 1.32 73 2 73 C2 49.57 2 26.14 2 2 C1.34 2 0.68 2 0 2 C0 1.34 0 0.68 0 0 Z " fill="#083B39" transform="translate(205,281)"/>
<path d="M0 0 C5.89 1.29 9.46 4.27 13 9 C15.82 14.82 17.52 21.64 16.52 28.06 C15.89 32.86 15.88 37.53 15.9 42.37 C15.9 43.39 15.91 44.4 15.91 45.45 C15.91 47.66 15.92 49.86 15.92 52.07 C15.94 55.56 15.94 59.05 15.95 62.55 C15.96 71.23 15.99 79.9 16.01 88.58 C16.03 95.92 16.05 103.26 16.06 110.59 C16.06 114.02 16.07 117.45 16.09 120.89 C16.09 123.01 16.09 125.13 16.1 127.25 C16.1 128.19 16.11 129.13 16.11 130.11 C16.11 142.82 16.11 142.82 15 148 C14.34 148.33 13.68 148.66 13 149 C13 148.32 13 147.63 13 146.93 C12.96 130.29 12.9 113.64 12.82 97 C12.78 88.95 12.74 80.9 12.73 72.85 C12.72 65.84 12.69 58.82 12.65 51.8 C12.62 48.09 12.61 44.38 12.61 40.66 C12.61 36.51 12.58 32.36 12.55 28.21 C12.55 26.37 12.55 26.37 12.56 24.5 C12.48 17.53 11.78 12.91 8 7 C5.29 4.42 3.54 3.18 0 2 C0 1.34 0 0.68 0 0 Z " fill="#54817A" transform="translate(407,239)"/>
<path d="M0 0 C1.65 0.33 3.3 0.66 5 1 C5.02 10.48 5.04 19.97 5.05 29.45 C5.06 33.85 5.06 38.26 5.08 42.66 C5.09 46.91 5.09 51.15 5.09 55.4 C5.1 57.02 5.1 58.65 5.11 60.27 C5.11 62.54 5.11 64.8 5.11 67.07 C5.12 68.36 5.12 69.66 5.12 70.99 C5 74 5 74 4 76 C2.68 76 1.36 76 0 76 C-0.8 61.38 -1.16 46.8 -1.13 32.16 C-1.12 28.95 -1.13 25.73 -1.14 22.52 C-1.14 20.45 -1.13 18.38 -1.13 16.31 C-1.13 15.36 -1.14 14.41 -1.14 13.43 C-1.12 8.84 -0.94 4.52 0 0 Z " fill="#88FEDF" transform="translate(158,282)"/>
<path d="M0 0 C0.33 0 0.66 0 1 0 C1 0.94 1 1.88 1 2.85 C1.04 25.72 1.1 48.58 1.18 71.45 C1.22 82.51 1.26 93.57 1.27 104.63 C1.28 114.27 1.31 123.92 1.35 133.56 C1.38 138.66 1.39 143.76 1.39 148.87 C1.39 153.67 1.41 158.48 1.44 163.29 C1.45 165.05 1.45 166.81 1.45 168.57 C1.42 177.66 1.49 185.8 6 194 C5.01 194 4.02 194 3 194 C-2.02 185.37 -1.55 176.87 -1.47 167.21 C-1.47 165.41 -1.47 163.61 -1.48 161.81 C-1.48 156.94 -1.46 152.07 -1.44 147.2 C-1.42 142.1 -1.42 137 -1.42 131.9 C-1.41 123.35 -1.39 114.8 -1.36 106.24 C-1.32 95.26 -1.3 84.27 -1.29 73.28 C-1.28 63.83 -1.26 54.39 -1.24 44.94 C-1.24 41.91 -1.23 38.87 -1.23 35.83 C-1.22 31.06 -1.2 26.3 -1.19 21.53 C-1.18 19.78 -1.18 18.03 -1.17 16.28 C-1.17 13.89 -1.16 11.51 -1.15 9.13 C-1.15 8.43 -1.15 7.73 -1.15 7.01 C-1.11 2.23 -1.11 2.23 0 0 Z " fill="#002D28" transform="translate(218,227)"/>
<path d="M0 0 C0.33 0 0.66 0 1 0 C1.17 10.29 1.34 20.58 1.5 30.88 C1.51 31.63 1.52 32.39 1.54 33.18 C1.93 58.45 2.14 83.72 2 109 C2.99 109 3.98 109 5 109 C5.66 111.64 6.32 114.28 7 117 C6.01 117 5.02 117 4 117 C-4.57 107.39 -2.28 91.55 -2.23 79.55 C-2.23 77.57 -2.23 75.59 -2.23 73.61 C-2.23 69.48 -2.22 65.35 -2.21 61.21 C-2.19 55.93 -2.18 50.65 -2.19 45.37 C-2.19 41.29 -2.18 37.21 -2.17 33.12 C-2.17 31.18 -2.17 29.23 -2.17 27.28 C-2.16 24.56 -2.16 21.83 -2.15 19.11 C-2.15 18.32 -2.15 17.53 -2.15 16.71 C-2.06 2.06 -2.06 2.06 0 0 Z " fill="#3B5655" transform="translate(367,265)"/>
<path d="M0 0 C0.66 0 1.32 0 2 0 C2 1.65 2 3.3 2 5 C3.32 5.33 4.64 5.66 6 6 C6 25.14 6 44.28 6 64 C5.01 64.5 5.01 64.5 4 65 C3.34 64.67 2.68 64.34 2 64 C2 68.95 2 73.9 2 79 C1.34 78.67 0.68 78.34 0 78 C0 52.26 0 26.52 0 0 Z " fill="#01A272" transform="translate(187,281)"/>
<path d="M0 0 C1.65 0 3.3 0 5 0 C5.03 6.96 5.04 13.92 5.05 20.88 C5.06 23.25 5.07 25.62 5.08 27.99 C5.09 31.39 5.09 34.79 5.1 38.18 C5.1 39.25 5.11 40.32 5.11 41.42 C5.11 42.4 5.11 43.38 5.11 44.39 C5.12 45.26 5.12 46.12 5.12 47.02 C5 49 5 49 4 50 C3.88 51.39 3.82 52.79 3.79 54.18 C3.76 55.03 3.73 55.87 3.7 56.74 C3.65 58.54 3.61 60.33 3.57 62.12 C3.54 62.97 3.51 63.81 3.48 64.68 C3.45 65.85 3.45 65.85 3.42 67.04 C3 69 3 69 0 71 C0 47.57 0 24.14 0 0 Z " fill="#00FEB8" transform="translate(141,286)"/>
<path d="M0 0 C-0.33 0.66 -0.66 1.32 -1 2 C-1.63 1.95 -2.26 1.91 -2.91 1.86 C-9.24 1.59 -13.85 2.15 -19 6 C-21.14 8.03 -23.03 10.1 -24.86 12.4 C-27 15 -27 15 -29.11 17 C-37.97 26.51 -36.11 38.94 -36 51.14 C-36.01 53.59 -36.02 56.04 -36.03 58.49 C-36.06 64.91 -36.04 71.33 -36.01 77.75 C-35.99 84.31 -36.02 90.87 -36.04 97.44 C-36.07 110.29 -36.05 123.15 -36 136 C-36.33 136 -36.66 136 -37 136 C-37.2 128.59 -37.4 121.19 -37.55 113.78 C-37.6 111.8 -37.64 109.81 -37.68 107.83 C-37.7 106.78 -37.72 105.73 -37.75 104.65 C-37.9 97.52 -38.11 90.39 -38.35 83.26 C-38.55 77.15 -38.72 71.03 -38.88 64.91 C-38.97 61.08 -39.09 57.25 -39.23 53.43 C-39.37 49.77 -39.47 46.11 -39.55 42.44 C-39.6 40.44 -39.69 38.43 -39.78 36.43 C-39.9 28.28 -38.53 23.97 -32.92 17.98 C-32.29 17.32 -31.65 16.67 -31 16 C-30.34 15.01 -29.68 14.02 -29 13 C-28.34 13 -27.68 13 -27 13 C-26.83 12.32 -26.67 11.64 -26.5 10.94 C-23.83 5.71 -19.29 2.12 -14.06 -0.44 C-9.56 -1.27 -4.21 -2.11 0 0 Z " fill="#054737" transform="translate(406,238)"/>
<path d="M0 0 C0.33 0 0.66 0 1 0 C1 0.82 1 1.63 1 2.48 C1.02 10.21 1.06 17.95 1.13 25.69 C1.17 29.67 1.19 33.64 1.2 37.62 C1.2 41.47 1.23 45.31 1.27 49.16 C1.29 50.61 1.29 52.07 1.29 53.53 C1.27 62.22 1.72 69.74 7 77 C12.24 81.92 18.02 82.39 24.91 82.36 C30.45 81.71 34.15 78.85 38 75 C38.99 75 39.98 75 41 75 C38.92 79.89 35.69 81.77 31 84 C24.48 86.23 18.44 86.66 12 84 C5.73 80.25 1.35 76.03 -1 69 C-1.25 65.91 -1.25 65.91 -1.24 62.42 C-1.25 61.11 -1.25 59.8 -1.25 58.45 C-1.25 57.03 -1.24 55.6 -1.23 54.18 C-1.23 52.71 -1.23 51.25 -1.23 49.78 C-1.23 46.72 -1.22 43.65 -1.21 40.59 C-1.19 36.66 -1.18 32.73 -1.19 28.8 C-1.19 25.78 -1.18 22.76 -1.17 19.73 C-1.17 18.29 -1.17 16.84 -1.17 15.39 C-1.16 13.36 -1.16 11.34 -1.15 9.32 C-1.14 8.17 -1.14 7.02 -1.13 5.83 C-1 3 -1 3 0 0 Z " fill="#062D2A" transform="translate(298,424)"/>
<path d="M0 0 C1.35 2.7 0.62 4.08 0 7 C-0.1 8.69 -0.15 10.39 -0.16 12.08 C-0.17 13.08 -0.18 14.08 -0.19 15.11 C-0.19 16.2 -0.2 17.28 -0.21 18.4 C-0.22 19.55 -0.23 20.7 -0.24 21.89 C-0.27 25.69 -0.29 29.5 -0.32 33.3 C-0.34 35.94 -0.36 38.58 -0.38 41.22 C-0.43 47.45 -0.47 53.68 -0.52 59.92 C-0.57 67.01 -0.62 74.11 -0.68 81.21 C-0.79 95.81 -0.9 110.4 -1 125 C-1.66 124.67 -2.32 124.34 -3 124 C-3.07 108.72 -3.12 93.44 -3.16 78.16 C-3.17 71.06 -3.19 63.96 -3.23 56.87 C-3.26 50.02 -3.28 43.17 -3.28 36.33 C-3.29 33.71 -3.3 31.1 -3.32 28.49 C-3.34 24.83 -3.34 21.17 -3.34 17.51 C-3.35 16.43 -3.36 15.35 -3.37 14.23 C-3.35 8.64 -3.07 4.74 0 0 Z " fill="#059F70" transform="translate(377,255)"/>
<path d="M0 0 C0.33 0 0.66 0 1 0 C1.99 6.64 2.18 13.14 2.2 19.84 C2.21 20.96 2.21 22.08 2.22 23.24 C2.23 25.6 2.24 27.96 2.24 30.33 C2.25 33.92 2.28 37.52 2.31 41.12 C2.32 43.42 2.32 45.72 2.33 48.03 C2.34 49.09 2.35 50.16 2.37 51.26 C2.34 58.84 1.21 65.11 -2.56 71.75 C-7.92 76.69 -13.69 79.3 -21 79.62 C-31.16 79.12 -37.5 74.08 -44.38 66.99 C-46 65 -46 65 -46 63 C-42.85 64.41 -40.55 66.12 -38 68.44 C-31.24 74.55 -27.01 76.46 -17.82 76.34 C-11.82 75.62 -7.72 72.15 -3.82 67.72 C0.42 61.88 -0.14 55.38 -0.2 48.44 C-0.18 47.04 -0.17 45.64 -0.15 44.23 C-0.12 40.57 -0.12 36.91 -0.12 33.25 C-0.13 29.5 -0.09 25.75 -0.06 22 C-0.01 14.67 0.01 7.33 0 0 Z " fill="#3E5A59" transform="translate(501,376)"/>
<path d="M0 0 C0 0.66 0 1.32 0 2 C-1.01 2.08 -2.02 2.17 -3.06 2.25 C-7.38 2.84 -10.31 4.76 -14 7 C-14.66 7 -15.32 7 -16 7 C-16.71 8.31 -17.36 9.65 -18 11 C-18.51 12.04 -19.02 13.08 -19.54 14.15 C-22.01 20.83 -21.48 28.07 -21.51 35.09 C-21.53 36.65 -21.55 38.21 -21.57 39.77 C-21.61 43.84 -21.64 47.92 -21.67 52 C-21.7 56.17 -21.75 60.34 -21.79 64.51 C-21.88 72.67 -21.94 80.84 -22 89 C-22.99 89.5 -22.99 89.5 -24 90 C-24.09 80.77 -24.16 71.54 -24.21 62.3 C-24.23 58.02 -24.26 53.73 -24.3 49.44 C-24.35 45.3 -24.37 41.15 -24.38 37.01 C-24.39 35.44 -24.4 33.86 -24.42 32.29 C-24.53 23.81 -24.54 16.48 -20 9 C-19.67 8.34 -19.34 7.68 -19 7 C-18.34 7 -17.68 7 -17 7 C-17 6.34 -17 5.68 -17 5 C-11.49 0.67 -6.86 -0.2 0 0 Z " fill="#002A24" transform="translate(161,264)"/>
<path d="M0 0 C0.66 0 1.32 0 2 0 C1.73 0.52 1.46 1.03 1.19 1.56 C0.8 2.37 0.4 3.17 0 4 C-0.51 5.05 -1.02 6.1 -1.55 7.17 C-3.19 11.04 -3.37 14.43 -3.37 18.64 C-3.38 19.37 -3.38 20.1 -3.38 20.85 C-3.39 23.25 -3.38 25.64 -3.36 28.03 C-3.36 29.7 -3.36 31.38 -3.36 33.05 C-3.36 36.55 -3.35 40.06 -3.34 43.56 C-3.31 48.03 -3.31 52.51 -3.32 56.98 C-3.32 60.43 -3.32 63.89 -3.31 67.35 C-3.3 69 -3.3 70.64 -3.3 72.29 C-3.3 74.6 -3.29 76.92 -3.27 79.23 C-3.27 80.54 -3.27 81.85 -3.26 83.2 C-2.97 87.39 -2.13 90.96 -1 95 C-3.72 92.65 -4.81 90.38 -6 87 C-6.99 87.5 -6.99 87.5 -8 88 C-8.04 86.33 -8.04 84.67 -8 83 C-7.5 82.5 -7.5 82.5 -7 82 C-6.89 79.86 -6.85 77.73 -6.84 75.59 C-6.84 74.92 -6.83 74.25 -6.83 73.56 C-6.82 72.1 -6.81 70.64 -6.8 69.18 C-6.79 66.86 -6.77 64.54 -6.75 62.22 C-6.69 55.64 -6.63 49.05 -6.6 42.46 C-6.58 38.43 -6.54 34.4 -6.5 30.37 C-6.48 28.84 -6.48 27.31 -6.47 25.78 C-6.43 6.71 -6.43 6.71 0 0 Z " fill="#26D7A9" transform="translate(145,271)"/>
<path d="M0 0 C2.94 2.59 4.88 4.86 5.31 8.88 C5.21 9.58 5.11 10.28 5 11 C3.68 10.67 2.36 10.34 1 10 C1 9.01 1 8.02 1 7 C-4.28 6.34 -9.56 5.68 -15 5 C-15 4.01 -15 3.02 -15 2 C-15.99 2.33 -16.98 2.66 -18 3 C-18 2.01 -18 1.02 -18 0 C-24.31 3.26 -27.74 6.69 -31 13 C-31.33 12.01 -31.66 11.02 -32 10 C-28.95 4.4 -24.99 0.39 -19.19 -2.31 C-12.18 -3.82 -6.35 -3.66 0 0 Z " fill="#08FBB7" transform="translate(331,134)"/>
<path d="M0 0 C2.24 3.36 2.25 4.47 2.27 8.4 C2.28 9.52 2.29 10.64 2.3 11.79 C2.3 13.02 2.3 14.25 2.3 15.52 C2.31 16.81 2.32 18.11 2.33 19.44 C2.35 22.26 2.36 25.07 2.37 27.89 C2.38 32.34 2.4 36.79 2.43 41.23 C2.47 48.27 2.5 55.3 2.53 62.34 C2.58 74.94 2.65 87.55 2.72 100.15 C2.74 104.58 2.76 109 2.78 113.43 C2.79 115.52 2.8 117.61 2.81 119.69 C2.82 122.24 2.83 124.79 2.83 127.34 C2.84 129.02 2.84 129.02 2.86 130.73 C2.86 131.71 2.86 132.68 2.87 133.69 C2.85 136.03 2.85 136.03 4 138 C3.34 138.99 2.68 139.98 2 141 C1.67 140.34 1.34 139.68 1 139 C-0.49 139.99 -0.49 139.99 -2 141 C-1.67 139.95 -1.35 138.9 -1.01 137.82 C0.46 131.88 0.26 125.96 0.23 119.88 C0.23 117.94 0.23 117.94 0.23 115.95 C0.23 112.41 0.22 108.87 0.2 105.33 C0.19 101.63 0.19 97.92 0.19 94.21 C0.18 87.21 0.16 80.2 0.14 73.19 C0.12 65.2 0.11 57.22 0.1 49.24 C0.08 32.83 0.04 16.41 0 0 Z " fill="#2CE6B4" transform="translate(418,251)"/>
<path d="M0 0 C1.49 0.99 1.49 0.99 3 2 C3.36 4.81 3.36 4.81 3.33 8.37 C3.32 9.67 3.32 10.97 3.31 12.3 C3.3 12.98 3.29 13.66 3.28 14.36 C3.25 16.4 3.24 18.43 3.23 20.47 C3.17 28.03 2.85 35.49 2 43 C-1.04 38.44 -1.13 35.27 -1.13 29.88 C-1.13 29.19 -1.13 28.49 -1.14 27.78 C-1.14 26.31 -1.13 24.84 -1.13 23.38 C-1.13 21.14 -1.13 18.9 -1.14 16.67 C-1.14 15.24 -1.13 13.81 -1.13 12.38 C-1.13 11.09 -1.13 9.79 -1.13 8.46 C-1.02 5.5 -0.69 2.87 0 0 Z " fill="#FFBFFF" transform="translate(213,289)"/>
<path d="M0 0 C0.66 0 1.32 0 2 0 C1.47 4.42 -0.13 6.93 -2.81 10.44 C-5.04 13.36 -7.06 16.11 -8.88 19.31 C-12.54 23.95 -16.97 27.33 -22.93 28.32 C-25.04 28.52 -27.13 28.6 -29.25 28.62 C-29.92 28.64 -30.6 28.65 -31.29 28.66 C-36.24 28.52 -39.22 27.15 -43 24 C-43.33 23.01 -43.66 22.02 -44 21 C-43.16 21.43 -43.16 21.43 -42.31 21.88 C-37.62 24.16 -33.96 25.31 -28.69 25.38 C-27.08 25.42 -27.08 25.42 -25.45 25.46 C-20.35 24.78 -16.04 23.22 -12.49 19.36 C-11.14 17.5 -9.93 15.6 -8.75 13.62 C-8.34 12.98 -7.94 12.33 -7.52 11.66 C-5.95 9.18 -4.42 6.68 -2.88 4.19 C-1.98 2.76 -0.99 1.37 0 0 Z " fill="#1A4C45" transform="translate(268,401)"/>
<path d="M0 0 C1.76 2.63 2.96 5.07 4.25 7.94 C6.46 12.4 8.42 14.76 13 17 C24.51 20.35 35.11 15.38 45.69 11.12 C49.05 9.98 49.81 9.99 53 11 C23.81 23.78 23.81 23.78 13.31 20.04 C8.46 17.82 4.86 15.64 2 11 C1.38 10.07 1.38 10.07 0.75 9.12 C-0.33 6.07 -0.12 3.21 0 0 Z " fill="#18564F" transform="translate(138,355)"/>
<path d="M0 0 C1.13 1.69 2.23 3.4 3.26 5.16 C5.57 8.95 7.38 11.59 11.12 14.06 C17.22 15.54 23.56 16.46 29.48 13.95 C32.32 12.2 34.64 10.36 37 8 C37.99 8 38.98 8 40 8 C37.92 12.89 34.69 14.77 30 17 C23.48 19.23 17.44 19.66 11 17 C5.85 13.92 0.96 10.35 -0.75 4.38 C-1 2 -1 2 0 0 Z " fill="#1F474B" transform="translate(299,491)"/>
<path d="M0 0 C0.66 0 1.32 0 2 0 C3.47 1.71 4.88 3.47 6.25 5.25 C11.15 11.37 15.07 15.32 23.08 16.24 C28.91 16.44 33.24 15.47 38 12 C40.2 9.81 42.15 7.5 44 5 C44.68 6.78 44.68 6.78 45 9 C42.03 13.68 37.41 16.95 32.16 18.56 C24.73 20.08 18.99 19.31 12.33 15.63 C8.53 12.97 5.76 9.69 3 6 C2.44 5.3 1.88 4.6 1.31 3.88 C0 2 0 2 0 0 Z " fill="#154942" transform="translate(375,384)"/>
<path d="M0 0 C8.1 5.54 13.21 15.32 17.75 23.81 C16.76 24.14 15.77 24.47 14.75 24.81 C14.4 24.05 14.05 23.29 13.69 22.5 C9.14 13.51 4.22 4.84 -5.19 0.44 C-11.82 -0.92 -16.52 -0.74 -22.43 2.54 C-26.87 5.63 -29.58 9.65 -31.25 14.81 C-31.91 14.48 -32.57 14.15 -33.25 13.81 C-31.31 7.6 -27.63 2.37 -22.19 -1.19 C-14.99 -3.59 -6.76 -3.5 0 0 Z " fill="#054F47" transform="translate(251.25,213.1875)"/>
<path d="M0 0 C4.22 3.08 8.02 6.05 10 11 C10.12 13.75 10.12 13.75 10 16 C8 14 8 14 6.69 10.62 C4.32 5.54 1.59 3.86 -3.25 1.25 C-9.47 -0.82 -14.49 -1.01 -20.44 1.94 C-21.63 2.61 -22.82 3.3 -24 4 C-24.99 4.5 -24.99 4.5 -26 5 C-25.79 3.14 -25.79 3.14 -25 1 C-16.98 -3.98 -8.27 -4.49 0 0 Z " fill="#095A53" transform="translate(491,188)"/>
<path d="M0 0 C0 0.66 0 1.32 0 2 C-1.01 2.08 -2.02 2.17 -3.06 2.25 C-7.38 2.84 -10.31 4.76 -14 7 C-14.66 7 -15.32 7 -16 7 C-19.24 12.98 -21.23 19.47 -23 26 C-23.33 26 -23.66 26 -24 26 C-24.49 19.29 -23.07 14.94 -20 9 C-19.67 8.34 -19.34 7.68 -19 7 C-18.34 7 -17.68 7 -17 7 C-17 6.34 -17 5.68 -17 5 C-11.49 0.67 -6.86 -0.2 0 0 Z " fill="#144C49" transform="translate(161,264)"/>
<path d="M0 0 C-0.33 0.66 -0.66 1.32 -1 2 C-1.63 1.95 -2.26 1.91 -2.91 1.86 C-9.22 1.59 -13.88 2.13 -19 6 C-22.55 9.49 -25.74 13.21 -28.61 17.28 C-29.3 18.13 -29.3 18.13 -30 19 C-30.66 19 -31.32 19 -32 19 C-31.19 16.56 -31.19 16.56 -30 14 C-29.01 13.67 -28.02 13.34 -27 13 C-26.77 12.3 -26.55 11.6 -26.31 10.88 C-23.91 5.6 -19.2 2.08 -14.06 -0.44 C-9.56 -1.27 -4.21 -2.11 0 0 Z " fill="#204E4A" transform="translate(406,238)"/>
<path d="M0 0 C0.33 0 0.66 0 1 0 C1.06 4.48 1.09 8.96 1.12 13.44 C1.14 14.7 1.16 15.96 1.18 17.26 C1.21 24.18 0.85 30.32 -1 37 C-2.98 37.5 -2.98 37.5 -5 38 C-4.68 37.03 -4.37 36.06 -4.04 35.06 C-2.81 30.74 -2.56 26.53 -2.38 22.06 C-2.34 21.28 -2.3 20.5 -2.26 19.7 C-2.16 17.8 -2.08 15.9 -2 14 C-1.67 14 -1.34 14 -1 14 C-0.67 9.38 -0.34 4.76 0 0 Z " fill="#6C908C" transform="translate(342,461)"/>
<path d="M0 0 C0.5 0.99 0.5 0.99 1 2 C0.14 1.68 -0.72 1.36 -1.6 1.03 C-7.65 -0.8 -14.39 -1.24 -20.45 0.84 C-25.57 3.73 -28.34 7.85 -31 13 C-31.33 12.01 -31.66 11.02 -32 10 C-28.95 4.4 -24.99 0.39 -19.19 -2.31 C-12.06 -3.85 -6.44 -3.49 0 0 Z " fill="#025C53" transform="translate(331,134)"/>
<path d="M0 0 C1.32 0.33 2.64 0.66 4 1 C-1.57 5.59 -6.02 6.53 -13.17 6.37 C-16.07 5.99 -18.35 5.21 -21 4 C-18.11 3.17 -16.11 3 -13 3 C-13 2.34 -13 1.68 -13 1 C-8.48 0.92 -4.41 0.9 0 2 C0 1.34 0 0.68 0 0 Z " fill="#22E8B3" transform="translate(330,501)"/>
<path d="M0 0 C0.99 0.5 0.99 0.5 2 1 C2.68 4.22 3.21 6.97 2.54 10.23 C1.83 13.86 1.77 17.46 1.68 21.14 C1.66 21.91 1.64 22.68 1.62 23.48 C1.56 25.92 1.5 28.37 1.44 30.81 C1.39 32.48 1.35 34.14 1.31 35.8 C1.2 39.87 1.1 43.93 1 48 C0.67 48 0.34 48 0 48 C0 32.16 0 16.32 0 0 Z " fill="#3F3850" transform="translate(421,256)"/>
<path d="M0 0 C0.99 0 1.98 0 3 0 C2.55 4.88 1.43 7.48 -2 11 C-5 13.12 -6.31 14 -10 14 C-10 13.34 -10 12.68 -10 12 C-10.66 12 -11.32 12 -12 12 C-12 11.34 -12 10.68 -12 10 C-9.69 10.33 -7.38 10.66 -5 11 C-5 9.35 -5 7.7 -5 6 C-3.68 6 -2.36 6 -1 6 C-1.02 5.2 -1.04 4.39 -1.06 3.56 C-1 1 -1 1 0 0 Z " fill="#1BE9AF" transform="translate(256,412)"/>
<path d="M0 0 C0.16 0.62 0.33 1.24 0.5 1.88 C2.45 4.64 4.41 5.03 7.64 5.69 C13.42 6.45 19.34 6.51 25 5 C22.25 8.16 20 8.81 15.89 9.2 C9.28 9.34 4.64 8.37 -0.44 3.81 C-1.21 2.92 -1.21 2.92 -2 2 C-1.34 2 -0.68 2 0 2 C0 1.34 0 0.68 0 0 Z " fill="#29DDAB" transform="translate(146,365)"/>
<path d="M0 0 C7.44 -0.51 13.28 -0.83 19.51 3.61 C21 5 21 5 23 8 C20.52 7.5 20.52 7.5 18 7 C17.67 6.01 17.34 5.02 17 4 C15.33 3.96 13.67 3.96 12 4 C11.67 4.33 11.34 4.66 11 5 C8.67 5.04 6.33 5.04 4 5 C4 4.34 4 3.68 4 3 C6.31 3 8.62 3 11 3 C11 2.34 11 1.68 11 1 C7.37 1 3.74 1 0 1 C0 0.67 0 0.34 0 0 Z " fill="#22E5B1" transform="translate(313,133)"/>
<path d="M0 0 C0.66 0.33 1.32 0.66 2 1 C-1.48 5.5 -4.42 9.21 -10 11 C-15.7 11.51 -19.82 11.59 -25 9 C-19.72 9 -14.44 9 -9 9 C-9 8.34 -9 7.68 -9 7 C-8.01 7 -7.02 7 -6 7 C-6 6.34 -6 5.68 -6 5 C-5.01 5 -4.02 5 -3 5 C-3 4.34 -3 3.68 -3 3 C-1.5 1.38 -1.5 1.38 0 0 Z " fill="#2ADBAB" transform="translate(496,442)"/>
<path d="M0 0 C2.57 2.57 2.54 4.48 3 8 C4.65 7.34 6.3 6.68 8 6 C8.14 7.11 8.29 8.23 8.44 9.38 C8.78 12.82 8.78 12.82 10 15 C8 14 6 13 4 12 C3.67 12.66 3.34 13.32 3 14 C3 13.01 3 12.02 3 11 C2.5 9.87 2.01 8.73 1.5 7.56 C0 4 0 4 0 0 Z " fill="#24DAAA" transform="translate(220,410)"/>
<path d="M0 0 C0.33 0 0.66 0 1 0 C0.66 6.5 -0.32 9.43 -5 14 C-7.31 15.38 -7.31 15.38 -9 16 C-8.42 12.08 -6.46 10.02 -4 7 C-2.59 4.7 -1.3 2.36 0 0 Z " fill="#385350" transform="translate(501,436)"/>
<path d="M0 0 C2.48 0.5 2.48 0.5 5 1 C1.93 5.54 -0.77 7.37 -6 9 C-9.02 9.22 -11.98 9.18 -15 9 C-15 8.67 -15 8.34 -15 8 C-12.36 8 -9.72 8 -7 8 C-7 7.34 -7 6.68 -7 6 C-5.35 6 -3.7 6 -2 6 C-2 5.01 -2 4.02 -2 3 C-1.01 3 -0.02 3 1 3 C0.67 2.01 0.34 1.02 0 0 Z " fill="#27D7A8" transform="translate(411,392)"/>
<path d="M0 0 C7.59 0.45 14.02 3.12 21 6 C20.67 6.66 20.34 7.32 20 8 C17.04 7.05 14.08 6.09 11.12 5.12 C10.28 4.86 9.44 4.59 8.57 4.31 C7.77 4.04 6.96 3.78 6.13 3.51 C5.39 3.27 4.65 3.03 3.88 2.78 C2 2 2 2 0 0 Z " fill="#0C4C43" transform="translate(162,265)"/>
<path d="M0 0 C0.99 0.33 1.98 0.66 3 1 C1.8 3.49 0.55 5.68 -1 8 C-1.99 8 -2.98 8 -4 8 C-4.33 9.98 -4.66 11.96 -5 14 C-6.65 14 -8.3 14 -10 14 C-7.99 10.72 -6.28 8.22 -3.25 5.81 C-2.14 4.92 -2.14 4.92 -1 4 C-1 3.01 -1 2.02 -1 1 C-0.67 0.67 -0.34 0.34 0 0 Z " fill="#25C69C" transform="translate(464,191)"/>
<path d="M0 0 C2.24 1.12 4.37 2.23 6.5 3.56 C11.55 5.64 16.58 5.75 22 6 C22 6.33 22 6.66 22 7 C19.62 7.11 17.25 7.19 14.88 7.25 C14.21 7.28 13.54 7.32 12.86 7.35 C7.74 7.45 4.89 6.29 1 3 C0.67 2.01 0.34 1.02 0 0 Z " fill="#173F3B" transform="translate(224,422)"/>
<path d="M0 0 C0.7 1.77 0.7 1.77 1 4 C-0.29 5.89 -0.29 5.89 -2.19 7.69 C-2.8 8.29 -3.41 8.89 -4.04 9.51 C-6.1 11.08 -7.42 11.77 -10 12 C-10.66 11.34 -11.32 10.68 -12 10 C-11.13 9.65 -10.27 9.3 -9.38 8.94 C-5.27 6.58 -2.86 3.7 0 0 Z " fill="#2F4E50" transform="translate(419,389)"/>
<path d="M0 0 C0.66 0 1.32 0 2 0 C2.33 0.99 2.66 1.98 3 3 C3.68 3.68 4.36 4.36 5.06 5.06 C5.7 5.7 6.34 6.34 7 7 C7 7.66 7 8.32 7 9 C8.65 9.33 10.3 9.66 12 10 C12 10.66 12 11.32 12 12 C5.64 10.76 2.82 6.86 -1 2 C-0.67 1.34 -0.34 0.68 0 0 Z " fill="#26DDAB" transform="translate(382,388)"/>
<path d="M0 0 C1.32 0.66 2.64 1.32 4 2 C2.84 6.36 1.92 8.65 -2 11 C-3.04 7.87 -2.93 7.01 -2 4 C-1.34 4 -0.68 4 0 4 C0 2.68 0 1.36 0 0 Z " fill="#214A53" transform="translate(207,350)"/>
<path d="M0 0 C0.66 0 1.32 0 2 0 C2.67 2.1 3.34 4.21 4 6.31 C4.37 7.48 4.74 8.66 5.12 9.86 C6 13 6 13 6 16 C2 13.33 1.21 10.54 0 6 C-0.19 2.5 -0.19 2.5 0 0 Z " fill="#1A4A44" transform="translate(217,406)"/>
<path d="M0 0 C0.66 0.33 1.32 0.66 2 1 C1.81 2.81 1.81 2.81 1 5 C-1.44 6.62 -1.44 6.62 -4 8 C-4.66 8.66 -5.32 9.32 -6 10 C-6.99 10 -7.98 10 -9 10 C-7.62 6.79 -6.08 4.95 -3.38 2.75 C-2.74 2.23 -2.11 1.71 -1.46 1.17 C-0.74 0.59 -0.74 0.59 0 0 Z " fill="#43565D" transform="translate(443,209)"/>
<path d="M0 0 C0.33 0.99 0.66 1.98 1 3 C0.07 3.68 -0.86 4.36 -1.81 5.06 C-5.31 7.94 -6.51 10.77 -8 15 C-8.66 14.67 -9.32 14.34 -10 14 C-8.43 8.98 -5.4 4.95 -2 1 C-1.34 0.67 -0.68 0.34 0 0 Z " fill="#205C55" transform="translate(228,213)"/>
<path d="M0 0 C0.27 0.56 0.54 1.11 0.81 1.69 C2 4.08 2 4.08 3.62 6.56 C5 9 5 9 5 12 C5.99 12.33 6.98 12.66 8 13 C8.33 13.99 8.66 14.98 9 16 C4.19 13.98 2.14 10.64 0 6 C-0.31 2.5 -0.31 2.5 0 0 Z " fill="#2BD8AA" transform="translate(300,488)"/>
<path d="M0 0 C0.66 0 1.32 0 2 0 C4.19 2.31 4.19 2.31 6 5 C5.67 5.99 5.34 6.98 5 8 C2.36 6.35 -0.28 4.7 -3 3 C-2.01 2.01 -1.02 1.02 0 0 Z " fill="#1F4A45" transform="translate(439,422)"/>
<path d="M0 0 C0.66 0 1.32 0 2 0 C1.47 4.51 -0.31 7.38 -3 11 C-3.33 11 -3.66 11 -4 11 C-3.26 3.26 -3.26 3.26 0 0 Z " fill="#3E3951" transform="translate(268,401)"/>
<path d="M0 0 C0.33 0 0.66 0 1 0 C1.14 1.11 1.29 2.23 1.44 3.38 C1.78 6.82 1.78 6.82 3 9 C2.01 10.49 2.01 10.49 1 12 C0.67 11.34 0.34 10.68 0 10 C-0.99 10.66 -1.98 11.32 -3 12 C-2.01 8.04 -1.02 4.08 0 0 Z " fill="#30BF9D" transform="translate(419,380)"/>
<path d="M0 0 C3.69 2.3 6.74 4.23 9 8 C9 8.66 9 9.32 9 10 C8.01 10 7.02 10 6 10 C5.75 9.05 5.5 8.1 5.25 7.12 C4.31 3.91 4.31 3.91 1.88 2.62 C1.26 2.42 0.64 2.21 0 2 C0 1.34 0 0.68 0 0 Z " fill="#2BD6A9" transform="translate(409,241)"/>
<path d="M0 0 C5.96 1.28 8.48 4.34 12 9 C9 9 9 9 6.56 6.62 C5.72 5.76 4.87 4.89 4 4 C1.83 2.7 1.83 2.7 0 2 C0 1.34 0 0.68 0 0 Z " fill="#09453D" transform="translate(407,239)"/>
<path d="M0 0 C1.67 2.5 2.62 4.41 3.62 7.19 C4.02 8.26 4.02 8.26 4.41 9.36 C4.61 9.9 4.8 10.44 5 11 C4.01 11 3.02 11 2 11 C-0.33 7.37 -0.16 4.23 0 0 Z " fill="#154B46" transform="translate(138,355)"/>
<path d="M0 0 C-1.45 3.83 -3.43 5.12 -7 7 C-6.22 2.48 -4.82 0 0 0 Z " fill="#455F5C" transform="translate(339,499)"/>
<path d="M0 0 C1.32 0.33 2.64 0.66 4 1 C2.74 1.7 1.46 2.38 0.19 3.06 C-0.52 3.45 -1.23 3.83 -1.96 4.22 C-4 5 -4 5 -7 4 C-4.62 2.44 -4.62 2.44 -2 1 C-1.34 1.33 -0.68 1.66 0 2 C0 1.34 0 0.68 0 0 Z " fill="#1CBE93" transform="translate(178,366)"/>
<path d="M0 0 C0 3.41 -0.67 4.39 -2.5 7.19 C-2.96 7.9 -3.43 8.62 -3.91 9.36 C-4.27 9.9 -4.63 10.44 -5 11 C-5.33 10.01 -5.66 9.02 -6 8 C-4.23 5 -2.46 2.46 0 0 Z " fill="#013931" transform="translate(305,136)"/>
<path d="M0 0 C-3.64 2.43 -4.93 2.08 -9.19 1.62 C-10.27 1.51 -11.36 1.4 -12.48 1.29 C-13.31 1.19 -14.14 1.1 -15 1 C-15 0.67 -15 0.34 -15 0 C-13.06 -0.2 -11.13 -0.38 -9.19 -0.56 C-8.11 -0.67 -7.03 -0.77 -5.92 -0.88 C-3 -1 -3 -1 0 0 Z " fill="#138972" transform="translate(249,427)"/>
<path d="M0 0 C1.56 1.19 1.56 1.19 3 3 C2.69 5.69 2.69 5.69 2 8 C0.44 6.81 0.44 6.81 -1 5 C-0.69 2.31 -0.69 2.31 0 0 Z " fill="#37816E" transform="translate(373,377)"/>
<path d="" fill="#FFFFFF" transform="translate(0,0)"/>
<path d="" fill="#FFFFFF" transform="translate(0,0)"/>
</svg>
